<?xml version="1.0" encoding="UTF-8" standalone="no"?>
<!DOCTYPE svg PUBLIC "-//W3C//DTD SVG 1.0//EN" "http://www.w3.org/TR/2001/PR-SVG-20010719/DTD/svg10.dtd">
<svg width="29cm" height="17cm" viewBox="139 22 579 331" xmlns="http://www.w3.org/2000/svg" xmlns:xlink="http://www.w3.org/1999/xlink">
  <g>
    <path style="fill: #0078aa" d="M 465.468 196.441 L 465.427,196.005 L 465.337,195.568 L 465.184,195.139 L 464.97,194.716 L 464.679,194.287 L 464.339,193.872 L 463.931,193.463 L 463.474,193.061 L 462.947,192.667 L 462.366,192.286 L 461.736,191.919 L 461.05,191.545 L 460.309,191.192 L 459.52,190.859 L 458.675,190.541 L 457.788,190.236 L 456.867,189.938 L 455.898,189.668 L 454.894,189.412 L 453.848,189.17 L 452.768,188.948 L 451.653,188.761 L 450.517,188.567 L 449.368,188.415 L 448.184,188.269 L 446.979,188.159 L 445.76,188.055 L 444.527,187.985 L 443.295,187.916 L 442.048,187.895 L 440.802,187.875 L 440.802,187.875 L 439.548,187.895 L 438.302,187.916 L 437.069,187.985 L 435.836,188.055 L 434.618,188.159 L 433.413,188.269 L 432.228,188.415 L 431.072,188.567 L 429.936,188.761 L 428.828,188.948 L 427.748,189.17 L 426.702,189.412 L 425.698,189.668 L 424.729,189.938 L 423.801,190.236 L 422.921,190.541 L 422.077,190.859 L 421.287,191.192 L 420.546,191.545 L 419.861,191.919 L 419.23,192.286 L 418.649,192.667 L 418.122,193.061 L 417.665,193.463 L 417.257,193.872 L 416.917,194.287 L 416.627,194.716 L 416.405,195.139 L 416.246,195.568 L 416.163,196.005 L 416.128,196.441 L 416.128,196.441 L 416.163,196.87 L 416.246,197.306 L 416.405,197.736 L 416.627,198.158 L 416.917,198.588 L 417.257,199.003 L 417.665,199.412 L 418.122,199.813 L 418.649,200.208 L 419.23,200.589 L 419.861,200.97 L 420.546,201.33 L 421.287,201.683 L 422.077,202.015 L 422.921,202.348 L 423.801,202.652 L 424.729,202.936 L 425.698,203.213 L 426.702,203.463 L 427.748,203.705 L 428.828,203.927 L 429.936,204.127 L 431.072,204.307 L 432.228,204.474 L 433.413,204.605 L 434.618,204.73 L 435.836,204.82 L 437.069,204.903 L 438.302,204.958 L 439.548,204.993 L 440.802,205 L 440.802,205 L 442.048,204.993 L 443.295,204.958 L 444.527,204.903 L 445.76,204.82 L 446.979,204.73 L 448.184,204.605 L 449.368,204.474 L 450.517,204.307 L 451.653,204.127 L 452.768,203.927 L 453.848,203.705 L 454.894,203.463 L 455.898,203.213 L 456.867,202.936 L 457.788,202.652 L 458.675,202.348 L 459.52,202.015 L 460.309,201.683 L 461.05,201.33 L 461.736,200.97 L 462.366,200.589 L 462.947,200.208 L 463.474,199.813 L 463.931,199.412 L 464.339,199.003 L 464.679,198.588 L 464.97,198.158 L 465.184,197.736 L 465.337,197.306 L 465.427,196.87 L 465.468,196.441z"/>
    <path style="fill: none; fill-opacity:0; stroke-width: 0.02; stroke: #aae6ff" d="M 465.177 196.302 L 465.143,195.866 L 465.06,195.451 L 464.9,195.021 L 464.686,194.606 L 464.402,194.19 L 464.042,193.782 L 463.668,193.387 L 463.197,192.985 L 462.677,192.597 L 462.103,192.21 L 461.466,191.85 L 460.787,191.489 L 460.053,191.143 L 459.27,190.811 L 458.439,190.492 L 457.553,190.201 L 456.625,189.924 L 455.669,189.64 L 454.672,189.405 L 453.633,189.156 L 452.553,188.941 L 451.459,188.747 L 450.337,188.567 L 449.181,188.415 L 448.01,188.269 L 446.805,188.159 L 445.601,188.055 L 444.375,187.985 L 443.142,187.937 L 441.903,187.895 L 440.663,187.895 L 440.663,187.895 L 439.41,187.895 L 438.177,187.937 L 436.937,187.985 L 435.726,188.055 L 434.514,188.159 L 433.316,188.269 L 432.138,188.415 L 430.982,188.567 L 429.853,188.747 L 428.759,188.941 L 427.679,189.156 L 426.64,189.405 L 425.65,189.64 L 424.687,189.924 L 423.759,190.201 L 422.88,190.492 L 422.056,190.811 L 421.273,191.143 L 420.532,191.489 L 419.84,191.85 L 419.223,192.21 L 418.642,192.597 L 418.122,192.985 L 417.665,193.387 L 417.264,193.782 L 416.917,194.19 L 416.64,194.606 L 416.419,195.021 L 416.26,195.451 L 416.17,195.866 L 416.135,196.302 L 416.135,196.302 L 416.17,196.725 L 416.26,197.161 L 416.419,197.57 L 416.64,197.992 L 416.917,198.414 L 417.264,198.816 L 417.665,199.218 L 418.122,199.619 L 418.642,200 L 419.223,200.388 L 419.84,200.755 L 420.532,201.101 L 421.273,201.454 L 422.056,201.794 L 422.88,202.098 L 423.759,202.396 L 424.687,202.68 L 425.65,202.957 L 426.64,203.2 L 427.679,203.435 L 428.759,203.657 L 429.853,203.85 L 430.982,204.024 L 432.138,204.19 L 433.316,204.328 L 434.514,204.439 L 435.726,204.536 L 436.937,204.605 L 438.177,204.668 L 439.41,204.702 L 440.663,204.709 L 440.663,204.709 L 441.903,204.702 L 443.142,204.668 L 444.375,204.605 L 445.601,204.536 L 446.805,204.439 L 448.01,204.328 L 449.181,204.19 L 450.337,204.024 L 451.459,203.85 L 452.553,203.657 L 453.633,203.435 L 454.672,203.2 L 455.669,202.957 L 456.625,202.68 L 457.553,202.396 L 458.439,202.098 L 459.27,201.794 L 460.053,201.454 L 460.787,201.101 L 461.466,200.755 L 462.103,200.388 L 462.677,200 L 463.197,199.619 L 463.668,199.218 L 464.042,198.816 L 464.402,198.414 L 464.686,197.992 L 464.9,197.57 L 465.06,197.161 L 465.143,196.725 L 465.177,196.302"/>
    <path style="fill: #0078aa" d="M 416.135 184.578 L 416.135,196.6 L 465.177,196.6 L 465.177,184.578 L 416.135,184.578z"/>
    <path style="fill: #00b4ff" d="M 465.468 184.433 L 465.427,183.997 L 465.337,183.553 L 465.184,183.131 L 464.97,182.702 L 464.679,182.272 L 464.339,181.857 L 463.931,181.448 L 463.474,181.054 L 462.947,180.652 L 462.366,180.278 L 461.736,179.897 L 461.05,179.537 L 460.309,179.177 L 459.52,178.851 L 458.675,178.526 L 457.788,178.214 L 456.867,177.924 L 455.898,177.653 L 454.894,177.397 L 453.848,177.162 L 452.768,176.947 L 451.653,176.739 L 450.517,176.559 L 449.368,176.393 L 448.184,176.255 L 446.979,176.137 L 445.76,176.04 L 444.527,175.964 L 443.295,175.908 L 442.048,175.874 L 440.802,175.867 L 440.802,175.867 L 439.548,175.874 L 438.302,175.908 L 437.069,175.964 L 435.836,176.04 L 434.618,176.137 L 433.413,176.255 L 432.228,176.393 L 431.072,176.559 L 429.936,176.739 L 428.828,176.947 L 427.748,177.162 L 426.702,177.397 L 425.698,177.653 L 424.729,177.924 L 423.801,178.214 L 422.921,178.526 L 422.077,178.851 L 421.287,179.177 L 420.546,179.537 L 419.861,179.897 L 419.23,180.278 L 418.649,180.652 L 418.122,181.054 L 417.665,181.448 L 417.257,181.857 L 416.917,182.272 L 416.627,182.702 L 416.405,183.131 L 416.246,183.553 L 416.163,183.997 L 416.128,184.433 L 416.128,184.433 L 416.163,184.862 L 416.246,185.299 L 416.405,185.728 L 416.627,186.143 L 416.917,186.573 L 417.257,186.988 L 417.665,187.397 L 418.122,187.805 L 418.649,188.2 L 419.23,188.574 L 419.861,188.948 L 420.546,189.322 L 421.287,189.668 L 422.077,190.001 L 422.921,190.326 L 423.801,190.631 L 424.729,190.929 L 425.698,191.192 L 426.702,191.448 L 427.748,191.69 L 428.828,191.919 L 429.936,192.106 L 431.072,192.293 L 432.228,192.459 L 433.413,192.591 L 434.618,192.708 L 435.836,192.805 L 437.069,192.881 L 438.302,192.944 L 439.548,192.978 L 440.802,192.985 L 440.802,192.985 L 442.048,192.978 L 443.295,192.944 L 444.527,192.881 L 445.76,192.805 L 446.979,192.708 L 448.184,192.591 L 449.368,192.459 L 450.517,192.293 L 451.653,192.106 L 452.768,191.919 L 453.848,191.69 L 454.894,191.448 L 455.898,191.192 L 456.867,190.929 L 457.788,190.631 L 458.675,190.326 L 459.52,190.001 L 460.309,189.668 L 461.05,189.322 L 461.736,188.948 L 462.366,188.574 L 462.947,188.2 L 463.474,187.805 L 463.931,187.397 L 464.339,186.988 L 464.679,186.573 L 464.97,186.143 L 465.184,185.728 L 465.337,185.299 L 465.427,184.862 L 465.468,184.433z"/>
    <path style="fill: none; fill-opacity:0; stroke-width: 0.02; stroke: #aae6ff" d="M 465.177 184.288 L 465.143,183.851 L 465.06,183.436 L 464.9,183.013 L 464.686,182.591 L 464.402,182.182 L 464.042,181.76 L 463.668,181.372 L 463.197,180.97 L 462.677,180.59 L 462.103,180.195 L 461.466,179.842 L 460.787,179.475 L 460.053,179.128 L 459.27,178.81 L 458.439,178.477 L 457.553,178.201 L 456.625,177.903 L 455.669,177.633 L 454.672,177.383 L 453.633,177.141 L 452.553,176.926 L 451.459,176.732 L 450.337,176.559 L 449.181,176.393 L 448.01,176.255 L 446.805,176.144 L 445.601,176.04 L 444.375,175.971 L 443.142,175.915 L 441.903,175.881 L 440.663,175.874 L 440.663,175.874 L 439.41,175.881 L 438.177,175.915 L 436.937,175.971 L 435.726,176.04 L 434.514,176.144 L 433.316,176.255 L 432.138,176.393 L 430.982,176.559 L 429.853,176.732 L 428.759,176.926 L 427.679,177.141 L 426.64,177.383 L 425.65,177.633 L 424.687,177.903 L 423.759,178.201 L 422.88,178.477 L 422.056,178.81 L 421.273,179.128 L 420.532,179.475 L 419.84,179.842 L 419.223,180.195 L 418.642,180.59 L 418.122,180.97 L 417.665,181.372 L 417.264,181.76 L 416.917,182.182 L 416.64,182.591 L 416.419,183.013 L 416.26,183.436 L 416.17,183.851 L 416.135,184.288 L 416.135,184.288 L 416.17,184.717 L 416.26,185.139 L 416.419,185.562 L 416.64,185.977 L 416.917,186.393 L 417.264,186.808 L 417.665,187.203 L 418.122,187.605 L 418.642,187.985 L 419.223,188.373 L 419.84,188.74 L 420.532,189.086 L 421.273,189.44 L 422.056,189.772 L 422.88,190.084 L 423.759,190.381 L 424.687,190.665 L 425.65,190.935 L 426.64,191.185 L 427.679,191.427 L 428.759,191.656 L 429.853,191.836 L 430.982,192.023 L 432.138,192.182 L 433.316,192.314 L 434.514,192.438 L 435.726,192.535 L 436.937,192.597 L 438.177,192.66 L 439.41,192.694 L 440.663,192.701 L 440.663,192.701 L 441.903,192.694 L 443.142,192.66 L 444.375,192.597 L 445.601,192.535 L 446.805,192.438 L 448.01,192.314 L 449.181,192.182 L 450.337,192.023 L 451.459,191.836 L 452.553,191.656 L 453.633,191.427 L 454.672,191.185 L 455.669,190.935 L 456.625,190.665 L 457.553,190.381 L 458.439,190.084 L 459.27,189.772 L 460.053,189.44 L 460.787,189.086 L 461.466,188.74 L 462.103,188.373 L 462.677,187.985 L 463.197,187.605 L 463.668,187.203 L 464.042,186.808 L 464.402,186.393 L 464.686,185.977 L 464.9,185.562 L 465.06,185.139 L 465.143,184.717 L 465.177,184.288"/>
    <path style="fill: #000000" d="M 441.259 182.487 L 444.846,183.692 L 453.523,180.077 L 457.408,181.275 L 455.309,178.284 L 445.15,178.284 L 449.326,179.177 L 441.259,182.487z"/>
    <path style="fill: #000000" d="M 439.756 185.79 L 436.176,184.578 L 427.797,188.2 L 423.614,186.988 L 425.698,190.291 L 436.176,190.291 L 431.681,189.086 L 439.756,185.79z"/>
    <path style="fill: #000000" d="M 424.507 179.177 L 428.087,177.979 L 436.771,181.275 L 440.663,180.382 L 438.572,183.373 L 428.392,183.373 L 432.575,182.487 L 424.507,179.177z"/>
    <path style="fill: #000000" d="M 456.805 189.384 L 453.211,190.589 L 444.846,186.988 L 440.663,188.2 L 442.754,185.181 L 453.211,185.181 L 448.731,186.081 L 456.805,189.384z"/>
    <path style="fill: #ffffff" d="M 441.556 182.785 L 445.15,183.983 L 453.807,180.382 L 457.705,181.587 L 455.607,178.574 L 445.441,178.574 L 449.631,179.468 L 441.556,182.785z"/>
    <path style="fill: #ffffff" d="M 440.061 186.081 L 436.46,184.883 L 428.087,188.484 L 423.905,187.286 L 425.996,190.589 L 436.46,190.589 L 431.979,189.384 L 440.061,186.081z"/>
    <path style="fill: #ffffff" d="M 424.805 179.468 L 428.392,178.284 L 437.069,181.587 L 440.954,180.673 L 438.869,183.692 L 428.69,183.692 L 432.886,182.785 L 424.805,179.468z"/>
    <path style="fill: #ffffff" d="M 457.096 189.696 L 453.523,190.894 L 445.15,187.286 L 440.954,188.484 L 443.045,185.492 L 453.523,185.492 L 449.035,186.386 L 457.096,189.696z"/>
    <path style="fill: none; fill-opacity:0; stroke-width: 0.02; stroke: #aae6ff" d="M 416.135 184.288 L 416.135,196.288"/>
    <path style="fill: none; fill-opacity:0; stroke-width: 0.02; stroke: #aae6ff" d="M 465.177 184.288 L 465.177,196.288"/>
  </g>
  <g>
    <path style="fill: #0096d4" d="M 238.43 189.112 L 238.43,197.694 L 272.38,197.694 L 272.38,189.112 L 238.43,189.112z"/>
    <path style="fill: none; fill-opacity:0; stroke-width: 0.02; stroke: #aae6ff" d="M 238.43 189.112 L 238.43,197.694 L 272.38,197.694 L 272.38,189.112 L 238.43,189.112"/>
    <path style="fill: #005a80" d="M 272.38 189.112 L 282.893,179 L 282.893,187.582 L 272.38,197.694 L 272.38,189.112z"/>
    <path style="fill: none; fill-opacity:0; stroke-width: 0.02; stroke: #aae6ff" d="M 272.38 189.112 L 282.893,179 L 282.893,187.582 L 272.38,197.694 L 272.38,189.112"/>
    <path style="fill: #00b4ff" d="M 272.38 189.112 L 282.893,179 L 248.92,179 L 238.43,189.112 L 272.38,189.112z"/>
    <path style="fill: none; fill-opacity:0; stroke-width: 0.02; stroke: #aae6ff" d="M 272.38 189.112 L 282.893,179 L 248.92,179 L 238.43,189.112 L 272.38,189.112"/>
    <path style="fill: #000000" d="M 259.719 184.214 L 258.491,185.419 L 267.127,185.419 L 265.899,186.964 L 272.998,185.118 L 269.298,183.596 L 268.363,184.214 L 259.719,184.214z"/>
    <path style="fill: #000000" d="M 264.045 180.228 L 262.809,181.449 L 271.453,181.449 L 269.908,182.978 L 277.316,180.846 L 273.307,179.301 L 272.704,180.228 L 264.045,180.228z"/>
    <path style="fill: #000000" d="M 256.629 187.582 L 257.888,186.346 L 248.92,186.346 L 250.465,184.817 L 243.351,186.647 L 247.066,188.192 L 247.692,187.582 L 256.629,187.582z"/>
    <path style="fill: #000000" d="M 260.654 183.272 L 261.89,182.074 L 253.246,182.074 L 254.798,180.529 L 247.375,182.669 L 251.384,184.214 L 252.002,183.272 L 260.654,183.272z"/>
    <path style="fill: #ffffff" d="M 260.028 184.5 L 258.8,185.728 L 267.444,185.728 L 266.208,187.265 L 273.307,185.419 L 269.591,183.897 L 268.68,184.5 L 260.028,184.5z"/>
    <path style="fill: #ffffff" d="M 264.354 180.529 L 263.118,181.75 L 271.762,181.75 L 270.217,183.272 L 277.632,181.132 L 273.623,179.61 L 272.998,180.529 L 264.354,180.529z"/>
    <path style="fill: #ffffff" d="M 256.938 187.883 L 258.174,186.647 L 249.237,186.647 L 250.758,185.118 L 243.667,186.964 L 247.375,188.494 L 247.985,187.883 L 256.938,187.883z"/>
    <path style="fill: #ffffff" d="M 260.947 183.596 L 262.199,182.36 L 253.539,182.36 L 255.092,180.846 L 247.692,182.978 L 251.701,184.5 L 252.303,183.596 L 260.947,183.596z"/>
  </g>
  <g>
    <path style="fill: #b7b79d" d="M 199.58 108.978 L 199.58,146 L 221.462,146 L 221.462,108.978 L 199.58,108.978z"/>
    <path style="fill: none; fill-opacity:0; stroke-width: 0.02; stroke: #494936" d="M 199.58 108.978 L 199.58,146 L 221.462,146 L 221.462,108.978 L 199.58,108.978"/>
    <path style="fill: #c9c9b6" d="M 199.58 108.978 L 202.545,106 L 224.42,106 L 221.462,108.978 L 199.58,108.978z"/>
    <path style="fill: none; fill-opacity:0; stroke-width: 0.02; stroke: #494936" d="M 199.58 108.978 L 202.545,106 L 224.276,106"/>
    <path style="fill: none; fill-opacity:0; stroke-width: 0.02; stroke: #494936" d="M 224.276 106.151 L 221.462,108.978 L 199.58,108.978"/>
    <path style="fill: #c9c9b6" d="M 200.928 111.132 L 210.923,111.132 L 210.923,115.989 L 200.928,115.989 L 200.928,111.132z"/>
    <path style="fill: none; fill-opacity:0; stroke-width: 0.02; stroke: #626248" d="M 200.928 111.132 L 210.917,111.132 L 210.917,115.982 L 200.928,115.982 L 200.928,111.132"/>
    <path style="fill: none; fill-opacity:0; stroke-width: 0.6; stroke: #ecece7" d="M 202.277 113.567 L 209.287,113.567"/>
    <path style="fill: #7a7a5a" d="M 221.462 146 L 224.42,143.015 L 224.42,106 L 221.462,108.978 L 221.462,146z"/>
    <path style="fill: none; fill-opacity:0; stroke-width: 0.02; stroke: #494936" d="M 221.462 146 L 224.276,143.166"/>
    <path style="fill: none; fill-opacity:0; stroke-width: 0.02; stroke: #494936" d="M 224.276 106.151 L 221.462,108.978 L 221.462,146"/>
    <path style="fill: none; fill-opacity:0; stroke-width: 0.6; stroke: #ecece7" d="M 199.855 143.559 L 221.455,143.559"/>
    <path style="fill: none; fill-opacity:0; stroke-width: 0.6; stroke: #000000" d="M 199.855 123.837 L 221.455,123.837"/>
    <path style="fill: none; fill-opacity:0; stroke-width: 0.6; stroke: #494936" d="M 199.58 143.29 L 221.435,143.29"/>
    <path style="fill: none; fill-opacity:0; stroke-width: 0.6; stroke: #000000" d="M 199.58 123.562 L 221.435,123.562"/>
    <path style="fill: none; fill-opacity:0; stroke-width: 0.02; stroke: #ecece7" d="M 200.928 115.727 L 200.928,111.132 L 210.648,111.132"/>
  </g>
  <g>
    <path style="fill: #b7b79d" d="M 199.58 229.978 L 199.58,267 L 221.462,267 L 221.462,229.978 L 199.58,229.978z"/>
    <path style="fill: none; fill-opacity:0; stroke-width: 0.02; stroke: #494936" d="M 199.58 229.978 L 199.58,267 L 221.462,267 L 221.462,229.978 L 199.58,229.978"/>
    <path style="fill: #c9c9b6" d="M 199.58 229.978 L 202.545,227 L 224.42,227 L 221.462,229.978 L 199.58,229.978z"/>
    <path style="fill: none; fill-opacity:0; stroke-width: 0.02; stroke: #494936" d="M 199.58 229.978 L 202.545,227 L 224.276,227"/>
    <path style="fill: none; fill-opacity:0; stroke-width: 0.02; stroke: #494936" d="M 224.276 227.151 L 221.462,229.978 L 199.58,229.978"/>
    <path style="fill: #c9c9b6" d="M 200.928 232.132 L 210.923,232.132 L 210.923,236.989 L 200.928,236.989 L 200.928,232.132z"/>
    <path style="fill: none; fill-opacity:0; stroke-width: 0.02; stroke: #626248" d="M 200.928 232.132 L 210.917,232.132 L 210.917,236.982 L 200.928,236.982 L 200.928,232.132"/>
    <path style="fill: none; fill-opacity:0; stroke-width: 0.6; stroke: #ecece7" d="M 202.277 234.567 L 209.287,234.567"/>
    <path style="fill: #7a7a5a" d="M 221.462 267 L 224.42,264.015 L 224.42,227 L 221.462,229.978 L 221.462,267z"/>
    <path style="fill: none; fill-opacity:0; stroke-width: 0.02; stroke: #494936" d="M 221.462 267 L 224.276,264.166"/>
    <path style="fill: none; fill-opacity:0; stroke-width: 0.02; stroke: #494936" d="M 224.276 227.151 L 221.462,229.978 L 221.462,267"/>
    <path style="fill: none; fill-opacity:0; stroke-width: 0.6; stroke: #ecece7" d="M 199.855 264.559 L 221.455,264.559"/>
    <path style="fill: none; fill-opacity:0; stroke-width: 0.6; stroke: #000000" d="M 199.855 244.837 L 221.455,244.837"/>
    <path style="fill: none; fill-opacity:0; stroke-width: 0.6; stroke: #494936" d="M 199.58 264.29 L 221.435,264.29"/>
    <path style="fill: none; fill-opacity:0; stroke-width: 0.6; stroke: #000000" d="M 199.58 244.562 L 221.435,244.562"/>
    <path style="fill: none; fill-opacity:0; stroke-width: 0.02; stroke: #ecece7" d="M 200.928 236.727 L 200.928,232.132 L 210.648,232.132"/>
  </g>
  <g>
    <path style="fill: #b7b79d" d="M 427.58 92.9782 L 427.58,130 L 449.462,130 L 449.462,92.9782 L 427.58,92.9782z"/>
    <path style="fill: none; fill-opacity:0; stroke-width: 0.02; stroke: #494936" d="M 427.58 92.9782 L 427.58,130 L 449.462,130 L 449.462,92.9782 L 427.58,92.9782"/>
    <path style="fill: #c9c9b6" d="M 427.58 92.9782 L 430.545,90 L 452.42,90 L 449.462,92.9782 L 427.58,92.9782z"/>
    <path style="fill: none; fill-opacity:0; stroke-width: 0.02; stroke: #494936" d="M 427.58 92.9782 L 430.545,90 L 452.276,90"/>
    <path style="fill: none; fill-opacity:0; stroke-width: 0.02; stroke: #494936" d="M 452.276 90.1505 L 449.462,92.9782 L 427.58,92.9782"/>
    <path style="fill: #c9c9b6" d="M 428.928 95.1317 L 438.923,95.1317 L 438.923,99.9885 L 428.928,99.9885 L 428.928,95.1317z"/>
    <path style="fill: none; fill-opacity:0; stroke-width: 0.02; stroke: #626248" d="M 428.928 95.1317 L 438.917,95.1317 L 438.917,99.982 L 428.928,99.982 L 428.928,95.1317"/>
    <path style="fill: none; fill-opacity:0; stroke-width: 0.6; stroke: #ecece7" d="M 430.277 97.5667 L 437.287,97.5667"/>
    <path style="fill: #7a7a5a" d="M 449.462 130 L 452.42,127.015 L 452.42,90 L 449.462,92.9782 L 449.462,130z"/>
    <path style="fill: none; fill-opacity:0; stroke-width: 0.02; stroke: #494936" d="M 449.462 130 L 452.276,127.166"/>
    <path style="fill: none; fill-opacity:0; stroke-width: 0.02; stroke: #494936" d="M 452.276 90.1505 L 449.462,92.9782 L 449.462,130"/>
    <path style="fill: none; fill-opacity:0; stroke-width: 0.6; stroke: #ecece7" d="M 427.855 127.559 L 449.455,127.559"/>
    <path style="fill: none; fill-opacity:0; stroke-width: 0.6; stroke: #000000" d="M 427.855 107.837 L 449.455,107.837"/>
    <path style="fill: none; fill-opacity:0; stroke-width: 0.6; stroke: #494936" d="M 427.58 127.29 L 449.436,127.29"/>
    <path style="fill: none; fill-opacity:0; stroke-width: 0.6; stroke: #000000" d="M 427.58 107.562 L 449.436,107.562"/>
    <path style="fill: none; fill-opacity:0; stroke-width: 0.02; stroke: #ecece7" d="M 428.928 99.7267 L 428.928,95.1317 L 438.649,95.1317"/>
  </g>
  <g>
    <path style="fill: #b7b79d" d="M 600.58 171.978 L 600.58,209 L 622.462,209 L 622.462,171.978 L 600.58,171.978z"/>
    <path style="fill: none; fill-opacity:0; stroke-width: 0.02; stroke: #494936" d="M 600.58 171.978 L 600.58,209 L 622.462,209 L 622.462,171.978 L 600.58,171.978"/>
    <path style="fill: #c9c9b6" d="M 600.58 171.978 L 603.545,169 L 625.42,169 L 622.462,171.978 L 600.58,171.978z"/>
    <path style="fill: none; fill-opacity:0; stroke-width: 0.02; stroke: #494936" d="M 600.58 171.978 L 603.545,169 L 625.276,169"/>
    <path style="fill: none; fill-opacity:0; stroke-width: 0.02; stroke: #494936" d="M 625.276 169.151 L 622.462,171.978 L 600.58,171.978"/>
    <path style="fill: #c9c9b6" d="M 601.928 174.132 L 611.923,174.132 L 611.923,178.989 L 601.928,178.989 L 601.928,174.132z"/>
    <path style="fill: none; fill-opacity:0; stroke-width: 0.02; stroke: #626248" d="M 601.928 174.132 L 611.917,174.132 L 611.917,178.982 L 601.928,178.982 L 601.928,174.132"/>
    <path style="fill: none; fill-opacity:0; stroke-width: 0.6; stroke: #ecece7" d="M 603.277 176.567 L 610.287,176.567"/>
    <path style="fill: #7a7a5a" d="M 622.462 209 L 625.42,206.015 L 625.42,169 L 622.462,171.978 L 622.462,209z"/>
    <path style="fill: none; fill-opacity:0; stroke-width: 0.02; stroke: #494936" d="M 622.462 209 L 625.276,206.166"/>
    <path style="fill: none; fill-opacity:0; stroke-width: 0.02; stroke: #494936" d="M 625.276 169.151 L 622.462,171.978 L 622.462,209"/>
    <path style="fill: none; fill-opacity:0; stroke-width: 0.6; stroke: #ecece7" d="M 600.855 206.559 L 622.455,206.559"/>
    <path style="fill: none; fill-opacity:0; stroke-width: 0.6; stroke: #000000" d="M 600.855 186.837 L 622.455,186.837"/>
    <path style="fill: none; fill-opacity:0; stroke-width: 0.6; stroke: #494936" d="M 600.58 206.29 L 622.436,206.29"/>
    <path style="fill: none; fill-opacity:0; stroke-width: 0.6; stroke: #000000" d="M 600.58 186.562 L 622.436,186.562"/>
    <path style="fill: none; fill-opacity:0; stroke-width: 0.02; stroke: #ecece7" d="M 601.928 178.727 L 601.928,174.132 L 611.649,174.132"/>
  </g>
  <line style="fill: none; fill-opacity:0; stroke-width: 2; stroke: #000000" x1="224.402" y1="141.907" x2="253.388" y2="179.035"/>
  <line style="fill: none; fill-opacity:0; stroke-width: 2; stroke: #000000" x1="224.402" y1="232.066" x2="252.9" y2="197.701"/>
  <line style="fill: none; fill-opacity:0; stroke-width: 2; stroke: #000000" x1="281.865" y1="188.591" x2="416.137" y2="190.134"/>
  <line style="fill: none; fill-opacity:0; stroke-width: 2; stroke: #000000" x1="465.182" y1="190.22" x2="600.724" y2="189.121"/>
  <line style="fill: none; fill-opacity:0; stroke-width: 2; stroke: #000000" x1="440.196" y1="130.013" x2="440.644" y2="175.873"/>
  <text font-size="14.6756" style="fill: #000000;text-anchor:start;font-family:sans-serif;font-style:normal;font-weight:normal" x="176" y="99">
    <tspan x="176" y="99">in-server1</tspan>
  </text>
  <text font-size="14.6756" style="fill: #000000;text-anchor:start;font-family:sans-serif;font-style:normal;font-weight:normal" x="170.7" y="282.55">
    <tspan x="170.7" y="282.55">in-server2</tspan>
  </text>
  <text font-size="14.6756" style="fill: #000000;text-anchor:start;font-family:sans-serif;font-style:normal;font-weight:normal" x="594.4" y="227.45">
    <tspan x="594.4" y="227.45">out-server</tspan>
  </text>
  <text font-size="14.6756" style="fill: #000000;text-anchor:start;font-family:sans-serif;font-style:normal;font-weight:normal" x="399.1" y="83.35">
    <tspan x="399.1" y="83.35">dmz-server</tspan>
  </text>
  <text font-size="14.6756" style="fill: #000000;text-anchor:start;font-family:sans-serif;font-style:normal;font-weight:normal" x="428.8" y="218.25">
    <tspan x="428.8" y="218.25">nat</tspan>
  </text>
  <text font-size="14.6756" style="fill: #000000;text-anchor:start;font-family:sans-serif;font-style:normal;font-weight:normal" x="592.5" y="243.15">
    <tspan x="592.5" y="243.15">200.0.0.200/24</tspan>
  </text>
  <text font-size="14.6756" style="fill: #000000;text-anchor:start;font-family:sans-serif;font-style:normal;font-weight:normal" x="393.2" y="68.05">
    <tspan x="393.2" y="68.05">10.0.0.100/24</tspan>
  </text>
  <text font-size="14.6756" style="fill: #000000;text-anchor:start;font-family:sans-serif;font-style:normal;font-weight:normal" x="149.9" y="82.95">
    <tspan x="149.9" y="82.95">192.168.56.10/24</tspan>
  </text>
  <text font-size="14.6756" style="fill: #000000;text-anchor:start;font-family:sans-serif;font-style:normal;font-weight:normal" x="149.6" y="298.85">
    <tspan x="149.6" y="298.85">192.168.56.20/24</tspan>
  </text>
  <text font-size="14.6756" style="fill: #000000;text-anchor:start;font-family:sans-serif;font-style:normal;font-weight:normal" x="289.3" y="220.75">
    <tspan x="289.3" y="220.75">192.168.56.254/24</tspan>
  </text>
  <text font-size="14.6756" style="fill: #000000;text-anchor:start;font-family:sans-serif;font-style:normal;font-weight:normal" x="462.7" y="218.05">
    <tspan x="462.7" y="218.05">200.0.0.254/24</tspan>
  </text>
  <text font-size="14.6756" style="fill: #000000;text-anchor:start;font-family:sans-serif;font-style:normal;font-weight:normal" x="338.4" y="156.95">
    <tspan x="338.4" y="156.95">10.0.0.254/24</tspan>
  </text>
  <text font-size="14.6756" style="fill: #000000;text-anchor:start;font-family:sans-serif;font-style:normal;font-weight:normal" x="376.1" y="204.85">
    <tspan x="376.1" y="204.85">eth0</tspan>
  </text>
  <text font-size="14.6756" style="fill: #000000;text-anchor:start;font-family:sans-serif;font-style:normal;font-weight:normal" x="405.7" y="173.55">
    <tspan x="405.7" y="173.55">eth1</tspan>
  </text>
  <text font-size="14.6756" style="fill: #000000;text-anchor:start;font-family:sans-serif;font-style:normal;font-weight:normal" x="471.4" y="203.45">
    <tspan x="471.4" y="203.45">eth2</tspan>
  </text>
  <rect style="fill: none; fill-opacity:0; stroke-width: 2; stroke-dasharray: 4; stroke: #0000ff" x="141" y="54" width="147" height="298"/>
  <text font-size="13.5467" style="fill: #000000;text-anchor:start;font-family:sans-serif;font-style:normal;font-weight:normal" x="201" y="331">
    <tspan x="201" y="331">内网</tspan>
  </text>
  <rect style="fill: none; fill-opacity:0; stroke-width: 2; stroke-dasharray: 4; stroke: #ff0000" x="578.7" y="53.9" width="138.3" height="298"/>
  <text font-size="13.5467" style="fill: #000000;text-anchor:start;font-family:sans-serif;font-style:normal;font-weight:normal" x="635.7" y="332.95">
    <tspan x="635.7" y="332.95">外网</tspan>
  </text>
  <rect style="fill: none; fill-opacity:0; stroke-width: 2; stroke-dasharray: 4; stroke: #ffa500" x="334" y="24" width="214" height="114"/>
  <text font-size="13.5467" style="fill: #000000;text-anchor:start;font-family:sans-serif;font-style:normal;font-weight:normal" x="389.7" y="42.95">
    <tspan x="389.7" y="42.95">屏蔽子网(DMZ区)</tspan>
  </text>
  <text font-size="13.5467" style="fill: #000000;text-anchor:start;font-family:sans-serif;font-style:normal;font-weight:normal" x="421" y="237">
    <tspan x="421" y="237">防火墙</tspan>
  </text>
</svg>
