<?xml version="1.0" encoding="UTF-8" standalone="no"?>
<!DOCTYPE svg PUBLIC "-//W3C//DTD SVG 1.0//EN" "http://www.w3.org/TR/2001/PR-SVG-20010719/DTD/svg10.dtd">
<svg width="35cm" height="5cm" viewBox="193 171 696 87" xmlns="http://www.w3.org/2000/svg" xmlns:xlink="http://www.w3.org/1999/xlink">
  <g>
    <path style="fill: #0078aa" d="M 455.54 210.122 L 455.502,209.721 L 455.419,209.319 L 455.279,208.924 L 455.082,208.535 L 454.814,208.14 L 454.501,207.757 L 454.125,207.381 L 453.705,207.012 L 453.22,206.648 L 452.685,206.298 L 452.105,205.96 L 451.474,205.616 L 450.792,205.291 L 450.065,204.985 L 449.288,204.692 L 448.472,204.411 L 447.624,204.137 L 446.732,203.889 L 445.808,203.653 L 444.845,203.43 L 443.851,203.226 L 442.825,203.054 L 441.78,202.875 L 440.722,202.735 L 439.632,202.601 L 438.523,202.499 L 437.401,202.404 L 436.266,202.34 L 435.132,202.276 L 433.985,202.257 L 432.837,202.238 L 432.837,202.238 L 431.684,202.257 L 430.536,202.276 L 429.402,202.34 L 428.267,202.404 L 427.146,202.499 L 426.037,202.601 L 424.947,202.735 L 423.882,202.875 L 422.837,203.054 L 421.817,203.226 L 420.823,203.43 L 419.861,203.653 L 418.936,203.889 L 418.044,204.137 L 417.19,204.411 L 416.38,204.692 L 415.603,204.985 L 414.876,205.291 L 414.194,205.616 L 413.563,205.96 L 412.983,206.298 L 412.448,206.648 L 411.964,207.012 L 411.543,207.381 L 411.167,207.757 L 410.854,208.14 L 410.587,208.535 L 410.383,208.924 L 410.236,209.319 L 410.16,209.721 L 410.128,210.122 L 410.128,210.122 L 410.16,210.517 L 410.236,210.919 L 410.383,211.314 L 410.587,211.703 L 410.854,212.098 L 411.167,212.48 L 411.543,212.856 L 411.964,213.226 L 412.448,213.589 L 412.983,213.94 L 413.563,214.291 L 414.194,214.622 L 414.876,214.947 L 415.603,215.253 L 416.38,215.559 L 417.19,215.839 L 418.044,216.101 L 418.936,216.356 L 419.861,216.585 L 420.823,216.808 L 421.817,217.012 L 422.837,217.197 L 423.882,217.363 L 424.947,217.516 L 426.037,217.637 L 427.146,217.751 L 428.267,217.834 L 429.402,217.911 L 430.536,217.962 L 431.684,217.994 L 432.837,218 L 432.837,218 L 433.985,217.994 L 435.132,217.962 L 436.266,217.911 L 437.401,217.834 L 438.523,217.751 L 439.632,217.637 L 440.722,217.516 L 441.78,217.363 L 442.825,217.197 L 443.851,217.012 L 444.845,216.808 L 445.808,216.585 L 446.732,216.356 L 447.624,216.101 L 448.472,215.839 L 449.288,215.559 L 450.065,215.253 L 450.792,214.947 L 451.474,214.622 L 452.105,214.291 L 452.685,213.94 L 453.22,213.589 L 453.705,213.226 L 454.125,212.856 L 454.501,212.48 L 454.814,212.098 L 455.082,211.703 L 455.279,211.314 L 455.419,210.919 L 455.502,210.517 L 455.54,210.122z"/>
    <path style="fill: none; fill-opacity:0; stroke-width: 0.02; stroke: #aae6ff" d="M 455.273 209.995 L 455.241,209.593 L 455.164,209.211 L 455.018,208.816 L 454.82,208.433 L 454.559,208.051 L 454.227,207.675 L 453.883,207.311 L 453.45,206.942 L 452.972,206.585 L 452.443,206.228 L 451.856,205.896 L 451.232,205.565 L 450.556,205.246 L 449.836,204.94 L 449.071,204.647 L 448.255,204.379 L 447.401,204.124 L 446.522,203.863 L 445.604,203.646 L 444.648,203.417 L 443.653,203.219 L 442.646,203.041 L 441.614,202.875 L 440.549,202.735 L 439.472,202.601 L 438.363,202.499 L 437.254,202.404 L 436.126,202.34 L 434.992,202.295 L 433.851,202.257 L 432.71,202.257 L 432.71,202.257 L 431.556,202.257 L 430.422,202.295 L 429.281,202.34 L 428.165,202.404 L 427.05,202.499 L 425.947,202.601 L 424.864,202.735 L 423.799,202.875 L 422.761,203.041 L 421.753,203.219 L 420.759,203.417 L 419.803,203.646 L 418.892,203.863 L 418.006,204.124 L 417.152,204.379 L 416.342,204.647 L 415.584,204.94 L 414.864,205.246 L 414.182,205.565 L 413.544,205.896 L 412.977,206.228 L 412.442,206.585 L 411.964,206.942 L 411.543,207.311 L 411.173,207.675 L 410.854,208.051 L 410.6,208.433 L 410.396,208.816 L 410.249,209.211 L 410.166,209.593 L 410.134,209.995 L 410.134,209.995 L 410.166,210.383 L 410.249,210.785 L 410.396,211.161 L 410.6,211.55 L 410.854,211.939 L 411.173,212.308 L 411.543,212.678 L 411.964,213.048 L 412.442,213.398 L 412.977,213.755 L 413.544,214.093 L 414.182,214.412 L 414.864,214.737 L 415.584,215.049 L 416.342,215.329 L 417.152,215.603 L 418.006,215.865 L 418.892,216.12 L 419.803,216.343 L 420.759,216.56 L 421.753,216.764 L 422.761,216.942 L 423.799,217.101 L 424.864,217.254 L 425.947,217.382 L 427.05,217.484 L 428.165,217.573 L 429.281,217.637 L 430.422,217.694 L 431.556,217.726 L 432.71,217.732 L 432.71,217.732 L 433.851,217.726 L 434.992,217.694 L 436.126,217.637 L 437.254,217.573 L 438.363,217.484 L 439.472,217.382 L 440.549,217.254 L 441.614,217.101 L 442.646,216.942 L 443.653,216.764 L 444.648,216.56 L 445.604,216.343 L 446.522,216.12 L 447.401,215.865 L 448.255,215.603 L 449.071,215.329 L 449.836,215.049 L 450.556,214.737 L 451.232,214.412 L 451.856,214.093 L 452.443,213.755 L 452.972,213.398 L 453.45,213.048 L 453.883,212.678 L 454.227,212.308 L 454.559,211.939 L 454.82,211.55 L 455.018,211.161 L 455.164,210.785 L 455.241,210.383 L 455.273,209.995"/>
    <path style="fill: #0078aa" d="M 410.134 199.204 L 410.134,210.269 L 455.273,210.269 L 455.273,199.204 L 410.134,199.204z"/>
    <path style="fill: #00b4ff" d="M 455.54 199.07 L 455.502,198.669 L 455.419,198.261 L 455.279,197.872 L 455.082,197.477 L 454.814,197.082 L 454.501,196.699 L 454.125,196.323 L 453.705,195.96 L 453.22,195.59 L 452.685,195.246 L 452.105,194.895 L 451.474,194.564 L 450.792,194.233 L 450.065,193.933 L 449.288,193.633 L 448.472,193.347 L 447.624,193.079 L 446.732,192.83 L 445.808,192.594 L 444.845,192.378 L 443.851,192.18 L 442.825,191.989 L 441.78,191.823 L 440.722,191.67 L 439.632,191.543 L 438.523,191.434 L 437.401,191.345 L 436.266,191.275 L 435.132,191.224 L 433.985,191.192 L 432.837,191.186 L 432.837,191.186 L 431.684,191.192 L 430.536,191.224 L 429.402,191.275 L 428.267,191.345 L 427.146,191.434 L 426.037,191.543 L 424.947,191.67 L 423.882,191.823 L 422.837,191.989 L 421.817,192.18 L 420.823,192.378 L 419.861,192.594 L 418.936,192.83 L 418.044,193.079 L 417.19,193.347 L 416.38,193.633 L 415.603,193.933 L 414.876,194.233 L 414.194,194.564 L 413.563,194.895 L 412.983,195.246 L 412.448,195.59 L 411.964,195.96 L 411.543,196.323 L 411.167,196.699 L 410.854,197.082 L 410.587,197.477 L 410.383,197.872 L 410.236,198.261 L 410.16,198.669 L 410.128,199.07 L 410.128,199.07 L 410.16,199.465 L 410.236,199.867 L 410.383,200.262 L 410.587,200.644 L 410.854,201.04 L 411.167,201.422 L 411.543,201.798 L 411.964,202.174 L 412.448,202.537 L 412.983,202.882 L 413.563,203.226 L 414.194,203.57 L 414.876,203.889 L 415.603,204.195 L 416.38,204.494 L 417.19,204.775 L 418.044,205.049 L 418.936,205.291 L 419.861,205.527 L 420.823,205.75 L 421.817,205.96 L 422.837,206.132 L 423.882,206.304 L 424.947,206.457 L 426.037,206.578 L 427.146,206.687 L 428.267,206.776 L 429.402,206.846 L 430.536,206.903 L 431.684,206.935 L 432.837,206.942 L 432.837,206.942 L 433.985,206.935 L 435.132,206.903 L 436.266,206.846 L 437.401,206.776 L 438.523,206.687 L 439.632,206.578 L 440.722,206.457 L 441.78,206.304 L 442.825,206.132 L 443.851,205.96 L 444.845,205.75 L 445.808,205.527 L 446.732,205.291 L 447.624,205.049 L 448.472,204.775 L 449.288,204.494 L 450.065,204.195 L 450.792,203.889 L 451.474,203.57 L 452.105,203.226 L 452.685,202.882 L 453.22,202.537 L 453.705,202.174 L 454.125,201.798 L 454.501,201.422 L 454.814,201.04 L 455.082,200.644 L 455.279,200.262 L 455.419,199.867 L 455.502,199.465 L 455.54,199.07z"/>
    <path style="fill: none; fill-opacity:0; stroke-width: 0.02; stroke: #aae6ff" d="M 455.273 198.936 L 455.241,198.535 L 455.164,198.152 L 455.018,197.764 L 454.82,197.375 L 454.559,196.999 L 454.227,196.61 L 453.883,196.253 L 453.45,195.883 L 452.972,195.533 L 452.443,195.169 L 451.856,194.844 L 451.232,194.507 L 450.556,194.188 L 449.836,193.895 L 449.071,193.589 L 448.255,193.334 L 447.401,193.06 L 446.522,192.811 L 445.604,192.582 L 444.648,192.359 L 443.653,192.161 L 442.646,191.983 L 441.614,191.823 L 440.549,191.67 L 439.472,191.543 L 438.363,191.441 L 437.254,191.345 L 436.126,191.282 L 434.992,191.231 L 433.851,191.199 L 432.71,191.192 L 432.71,191.192 L 431.556,191.199 L 430.422,191.231 L 429.281,191.282 L 428.165,191.345 L 427.05,191.441 L 425.947,191.543 L 424.864,191.67 L 423.799,191.823 L 422.761,191.983 L 421.753,192.161 L 420.759,192.359 L 419.803,192.582 L 418.892,192.811 L 418.006,193.06 L 417.152,193.334 L 416.342,193.589 L 415.584,193.895 L 414.864,194.188 L 414.182,194.507 L 413.544,194.844 L 412.977,195.169 L 412.442,195.533 L 411.964,195.883 L 411.543,196.253 L 411.173,196.61 L 410.854,196.999 L 410.6,197.375 L 410.396,197.764 L 410.249,198.152 L 410.166,198.535 L 410.134,198.936 L 410.134,198.936 L 410.166,199.331 L 410.249,199.72 L 410.396,200.109 L 410.6,200.491 L 410.854,200.874 L 411.173,201.256 L 411.543,201.62 L 411.964,201.989 L 412.442,202.34 L 412.977,202.697 L 413.544,203.035 L 414.182,203.353 L 414.864,203.678 L 415.584,203.984 L 416.342,204.271 L 417.152,204.545 L 418.006,204.806 L 418.892,205.055 L 419.803,205.284 L 420.759,205.508 L 421.753,205.718 L 422.761,205.884 L 423.799,206.056 L 424.864,206.202 L 425.947,206.323 L 427.05,206.438 L 428.165,206.527 L 429.281,206.585 L 430.422,206.642 L 431.556,206.674 L 432.71,206.68 L 432.71,206.68 L 433.851,206.674 L 434.992,206.642 L 436.126,206.585 L 437.254,206.527 L 438.363,206.438 L 439.472,206.323 L 440.549,206.202 L 441.614,206.056 L 442.646,205.884 L 443.653,205.718 L 444.648,205.508 L 445.604,205.284 L 446.522,205.055 L 447.401,204.806 L 448.255,204.545 L 449.071,204.271 L 449.836,203.984 L 450.556,203.678 L 451.232,203.353 L 451.856,203.035 L 452.443,202.697 L 452.972,202.34 L 453.45,201.989 L 453.883,201.62 L 454.227,201.256 L 454.559,200.874 L 454.82,200.491 L 455.018,200.109 L 455.164,199.72 L 455.241,199.331 L 455.273,198.936"/>
    <path style="fill: #000000" d="M 433.258 197.279 L 436.56,198.388 L 444.546,195.061 L 448.121,196.164 L 446.19,193.41 L 436.84,193.41 L 440.683,194.233 L 433.258,197.279z"/>
    <path style="fill: #000000" d="M 431.875 200.319 L 428.58,199.204 L 420.868,202.537 L 417.018,201.422 L 418.936,204.462 L 428.58,204.462 L 424.443,203.353 L 431.875,200.319z"/>
    <path style="fill: #000000" d="M 417.84 194.233 L 421.135,193.13 L 429.128,196.164 L 432.71,195.342 L 430.785,198.095 L 421.416,198.095 L 425.265,197.279 L 417.84,194.233z"/>
    <path style="fill: #000000" d="M 447.567 203.627 L 444.259,204.736 L 436.56,201.422 L 432.71,202.537 L 434.635,199.759 L 444.259,199.759 L 440.135,200.587 L 447.567,203.627z"/>
    <path style="fill: #ffffff" d="M 433.532 197.553 L 436.84,198.656 L 444.807,195.342 L 448.396,196.451 L 446.464,193.678 L 437.108,193.678 L 440.964,194.5 L 433.532,197.553z"/>
    <path style="fill: #ffffff" d="M 432.155 200.587 L 428.841,199.484 L 421.135,202.799 L 417.286,201.696 L 419.21,204.736 L 428.841,204.736 L 424.717,203.627 L 432.155,200.587z"/>
    <path style="fill: #ffffff" d="M 418.114 194.5 L 421.416,193.41 L 429.402,196.451 L 432.978,195.609 L 431.059,198.388 L 421.69,198.388 L 425.552,197.553 L 418.114,194.5z"/>
    <path style="fill: #ffffff" d="M 447.835 203.914 L 444.546,205.017 L 436.84,201.696 L 432.978,202.799 L 434.902,200.045 L 444.546,200.045 L 440.416,200.868 L 447.835,203.914z"/>
    <path style="fill: none; fill-opacity:0; stroke-width: 0.02; stroke: #aae6ff" d="M 410.134 198.936 L 410.134,209.982"/>
    <path style="fill: none; fill-opacity:0; stroke-width: 0.02; stroke: #aae6ff" d="M 455.273 198.936 L 455.273,209.982"/>
  </g>
  <g>
    <path style="fill: #0078aa" d="M 665.387 209.975 L 665.348,209.566 L 665.264,209.157 L 665.121,208.755 L 664.92,208.359 L 664.647,207.956 L 664.329,207.566 L 663.946,207.183 L 663.517,206.807 L 663.024,206.437 L 662.479,206.08 L 661.888,205.736 L 661.245,205.385 L 660.55,205.054 L 659.81,204.742 L 659.018,204.444 L 658.187,204.158 L 657.323,203.879 L 656.415,203.626 L 655.473,203.385 L 654.493,203.158 L 653.48,202.95 L 652.435,202.775 L 651.37,202.593 L 650.292,202.45 L 649.182,202.314 L 648.052,202.21 L 646.909,202.113 L 645.754,202.048 L 644.598,201.983 L 643.429,201.963 L 642.261,201.944 L 642.261,201.944 L 641.086,201.963 L 639.917,201.983 L 638.761,202.048 L 637.606,202.113 L 636.463,202.21 L 635.333,202.314 L 634.223,202.45 L 633.139,202.593 L 632.074,202.775 L 631.035,202.95 L 630.022,203.158 L 629.042,203.385 L 628.101,203.626 L 627.192,203.879 L 626.322,204.158 L 625.497,204.444 L 624.705,204.742 L 623.965,205.054 L 623.27,205.385 L 622.627,205.736 L 622.037,206.08 L 621.491,206.437 L 620.998,206.807 L 620.569,207.183 L 620.186,207.566 L 619.868,207.956 L 619.595,208.359 L 619.388,208.755 L 619.238,209.157 L 619.16,209.566 L 619.128,209.975 L 619.128,209.975 L 619.16,210.378 L 619.238,210.787 L 619.388,211.189 L 619.595,211.585 L 619.868,211.988 L 620.186,212.377 L 620.569,212.761 L 620.998,213.137 L 621.491,213.507 L 622.037,213.864 L 622.627,214.221 L 623.27,214.559 L 623.965,214.89 L 624.705,215.202 L 625.497,215.513 L 626.322,215.799 L 627.192,216.065 L 628.101,216.325 L 629.042,216.559 L 630.022,216.786 L 631.035,216.994 L 632.074,217.182 L 633.139,217.351 L 634.223,217.507 L 635.333,217.63 L 636.463,217.747 L 637.606,217.831 L 638.761,217.909 L 639.917,217.961 L 641.086,217.994 L 642.261,218 L 642.261,218 L 643.429,217.994 L 644.598,217.961 L 645.754,217.909 L 646.909,217.831 L 648.052,217.747 L 649.182,217.63 L 650.292,217.507 L 651.37,217.351 L 652.435,217.182 L 653.48,216.994 L 654.493,216.786 L 655.473,216.559 L 656.415,216.325 L 657.323,216.065 L 658.187,215.799 L 659.018,215.513 L 659.81,215.202 L 660.55,214.89 L 661.245,214.559 L 661.888,214.221 L 662.479,213.864 L 663.024,213.507 L 663.517,213.137 L 663.946,212.761 L 664.329,212.377 L 664.647,211.988 L 664.92,211.585 L 665.121,211.189 L 665.264,210.787 L 665.348,210.378 L 665.387,209.975z"/>
    <path style="fill: none; fill-opacity:0; stroke-width: 0.02; stroke: #aae6ff" d="M 665.115 209.845 L 665.082,209.436 L 665.004,209.047 L 664.855,208.644 L 664.654,208.255 L 664.387,207.865 L 664.05,207.482 L 663.699,207.112 L 663.258,206.735 L 662.771,206.372 L 662.232,206.008 L 661.635,205.671 L 660.998,205.333 L 660.31,205.008 L 659.576,204.697 L 658.797,204.398 L 657.966,204.125 L 657.096,203.866 L 656.2,203.6 L 655.265,203.379 L 654.291,203.145 L 653.279,202.944 L 652.253,202.762 L 651.201,202.593 L 650.117,202.45 L 649.02,202.314 L 647.89,202.21 L 646.76,202.113 L 645.611,202.048 L 644.455,202.002 L 643.293,201.963 L 642.131,201.963 L 642.131,201.963 L 640.956,201.963 L 639.8,202.002 L 638.638,202.048 L 637.502,202.113 L 636.366,202.21 L 635.242,202.314 L 634.139,202.45 L 633.054,202.593 L 631.996,202.762 L 630.97,202.944 L 629.957,203.145 L 628.984,203.379 L 628.055,203.6 L 627.153,203.866 L 626.283,204.125 L 625.458,204.398 L 624.685,204.697 L 623.952,205.008 L 623.257,205.333 L 622.608,205.671 L 622.03,206.008 L 621.485,206.372 L 620.998,206.735 L 620.569,207.112 L 620.193,207.482 L 619.868,207.865 L 619.608,208.255 L 619.401,208.644 L 619.251,209.047 L 619.167,209.436 L 619.134,209.845 L 619.134,209.845 L 619.167,210.241 L 619.251,210.65 L 619.401,211.034 L 619.608,211.43 L 619.868,211.826 L 620.193,212.202 L 620.569,212.579 L 620.998,212.955 L 621.485,213.312 L 622.03,213.676 L 622.608,214.02 L 623.257,214.345 L 623.952,214.676 L 624.685,214.994 L 625.458,215.28 L 626.283,215.559 L 627.153,215.825 L 628.055,216.085 L 628.984,216.312 L 629.957,216.533 L 630.97,216.74 L 631.996,216.922 L 633.054,217.085 L 634.139,217.24 L 635.242,217.37 L 636.366,217.474 L 637.502,217.565 L 638.638,217.63 L 639.8,217.688 L 640.956,217.721 L 642.131,217.727 L 642.131,217.727 L 643.293,217.721 L 644.455,217.688 L 645.611,217.63 L 646.76,217.565 L 647.89,217.474 L 649.02,217.37 L 650.117,217.24 L 651.201,217.085 L 652.253,216.922 L 653.279,216.74 L 654.291,216.533 L 655.265,216.312 L 656.2,216.085 L 657.096,215.825 L 657.966,215.559 L 658.797,215.28 L 659.576,214.994 L 660.31,214.676 L 660.998,214.345 L 661.635,214.02 L 662.232,213.676 L 662.771,213.312 L 663.258,212.955 L 663.699,212.579 L 664.05,212.202 L 664.387,211.826 L 664.654,211.43 L 664.855,211.034 L 665.004,210.65 L 665.082,210.241 L 665.115,209.845"/>
    <path style="fill: #0078aa" d="M 619.134 198.854 L 619.134,210.125 L 665.115,210.125 L 665.115,198.854 L 619.134,198.854z"/>
    <path style="fill: #00b4ff" d="M 665.387 198.717 L 665.348,198.308 L 665.264,197.893 L 665.121,197.497 L 664.92,197.094 L 664.647,196.691 L 664.329,196.302 L 663.946,195.919 L 663.517,195.549 L 663.024,195.172 L 662.479,194.822 L 661.888,194.465 L 661.245,194.127 L 660.55,193.789 L 659.81,193.484 L 659.018,193.179 L 658.187,192.887 L 657.323,192.614 L 656.415,192.361 L 655.473,192.121 L 654.493,191.9 L 653.48,191.699 L 652.435,191.504 L 651.37,191.335 L 650.292,191.179 L 649.182,191.049 L 648.052,190.939 L 646.909,190.848 L 645.754,190.777 L 644.598,190.725 L 643.429,190.692 L 642.261,190.686 L 642.261,190.686 L 641.086,190.692 L 639.917,190.725 L 638.761,190.777 L 637.606,190.848 L 636.463,190.939 L 635.333,191.049 L 634.223,191.179 L 633.139,191.335 L 632.074,191.504 L 631.035,191.699 L 630.022,191.9 L 629.042,192.121 L 628.101,192.361 L 627.192,192.614 L 626.322,192.887 L 625.497,193.179 L 624.705,193.484 L 623.965,193.789 L 623.27,194.127 L 622.627,194.465 L 622.037,194.822 L 621.491,195.172 L 620.998,195.549 L 620.569,195.919 L 620.186,196.302 L 619.868,196.691 L 619.595,197.094 L 619.388,197.497 L 619.238,197.893 L 619.16,198.308 L 619.128,198.717 L 619.128,198.717 L 619.16,199.12 L 619.238,199.529 L 619.388,199.931 L 619.595,200.321 L 619.868,200.723 L 620.186,201.113 L 620.569,201.496 L 620.998,201.879 L 621.491,202.249 L 622.037,202.6 L 622.627,202.95 L 623.27,203.301 L 623.965,203.626 L 624.705,203.937 L 625.497,204.242 L 626.322,204.528 L 627.192,204.807 L 628.101,205.054 L 629.042,205.294 L 630.022,205.521 L 631.035,205.736 L 632.074,205.911 L 633.139,206.086 L 634.223,206.242 L 635.333,206.365 L 636.463,206.476 L 637.606,206.567 L 638.761,206.638 L 639.917,206.696 L 641.086,206.729 L 642.261,206.735 L 642.261,206.735 L 643.429,206.729 L 644.598,206.696 L 645.754,206.638 L 646.909,206.567 L 648.052,206.476 L 649.182,206.365 L 650.292,206.242 L 651.37,206.086 L 652.435,205.911 L 653.48,205.736 L 654.493,205.521 L 655.473,205.294 L 656.415,205.054 L 657.323,204.807 L 658.187,204.528 L 659.018,204.242 L 659.81,203.937 L 660.55,203.626 L 661.245,203.301 L 661.888,202.95 L 662.479,202.6 L 663.024,202.249 L 663.517,201.879 L 663.946,201.496 L 664.329,201.113 L 664.647,200.723 L 664.92,200.321 L 665.121,199.931 L 665.264,199.529 L 665.348,199.12 L 665.387,198.717z"/>
    <path style="fill: none; fill-opacity:0; stroke-width: 0.02; stroke: #aae6ff" d="M 665.115 198.581 L 665.082,198.172 L 665.004,197.782 L 664.855,197.386 L 664.654,196.99 L 664.387,196.607 L 664.05,196.211 L 663.699,195.847 L 663.258,195.471 L 662.771,195.114 L 662.232,194.744 L 661.635,194.413 L 660.998,194.069 L 660.31,193.744 L 659.576,193.445 L 658.797,193.134 L 657.966,192.874 L 657.096,192.595 L 656.2,192.341 L 655.265,192.108 L 654.291,191.881 L 653.279,191.679 L 652.253,191.497 L 651.201,191.335 L 650.117,191.179 L 649.02,191.049 L 647.89,190.946 L 646.76,190.848 L 645.611,190.783 L 644.455,190.731 L 643.293,190.699 L 642.131,190.692 L 642.131,190.692 L 640.956,190.699 L 639.8,190.731 L 638.638,190.783 L 637.502,190.848 L 636.366,190.946 L 635.242,191.049 L 634.139,191.179 L 633.054,191.335 L 631.996,191.497 L 630.97,191.679 L 629.957,191.881 L 628.984,192.108 L 628.055,192.341 L 627.153,192.595 L 626.283,192.874 L 625.458,193.134 L 624.685,193.445 L 623.952,193.744 L 623.257,194.069 L 622.608,194.413 L 622.03,194.744 L 621.485,195.114 L 620.998,195.471 L 620.569,195.847 L 620.193,196.211 L 619.868,196.607 L 619.608,196.99 L 619.401,197.386 L 619.251,197.782 L 619.167,198.172 L 619.134,198.581 L 619.134,198.581 L 619.167,198.983 L 619.251,199.379 L 619.401,199.775 L 619.608,200.165 L 619.868,200.555 L 620.193,200.944 L 620.569,201.314 L 620.998,201.691 L 621.485,202.048 L 622.03,202.411 L 622.608,202.756 L 623.257,203.08 L 623.952,203.411 L 624.685,203.723 L 625.458,204.015 L 626.283,204.294 L 627.153,204.56 L 628.055,204.814 L 628.984,205.047 L 629.957,205.275 L 630.97,205.489 L 631.996,205.658 L 633.054,205.833 L 634.139,205.982 L 635.242,206.106 L 636.366,206.223 L 637.502,206.313 L 638.638,206.372 L 639.8,206.43 L 640.956,206.463 L 642.131,206.469 L 642.131,206.469 L 643.293,206.463 L 644.455,206.43 L 645.611,206.372 L 646.76,206.313 L 647.89,206.223 L 649.02,206.106 L 650.117,205.982 L 651.201,205.833 L 652.253,205.658 L 653.279,205.489 L 654.291,205.275 L 655.265,205.047 L 656.2,204.814 L 657.096,204.56 L 657.966,204.294 L 658.797,204.015 L 659.576,203.723 L 660.31,203.411 L 660.998,203.08 L 661.635,202.756 L 662.232,202.411 L 662.771,202.048 L 663.258,201.691 L 663.699,201.314 L 664.05,200.944 L 664.387,200.555 L 664.654,200.165 L 664.855,199.775 L 665.004,199.379 L 665.082,198.983 L 665.115,198.581"/>
    <path style="fill: #000000" d="M 642.689 196.893 L 646.052,198.022 L 654.188,194.633 L 657.83,195.757 L 655.863,192.952 L 646.338,192.952 L 650.253,193.789 L 642.689,196.893z"/>
    <path style="fill: #000000" d="M 641.28 199.99 L 637.924,198.854 L 630.068,202.249 L 626.146,201.113 L 628.101,204.21 L 637.924,204.21 L 633.71,203.08 L 641.28,199.99z"/>
    <path style="fill: #000000" d="M 626.984 193.789 L 630.34,192.666 L 638.482,195.757 L 642.131,194.919 L 640.17,197.724 L 630.626,197.724 L 634.548,196.893 L 626.984,193.789z"/>
    <path style="fill: #000000" d="M 657.265 203.359 L 653.895,204.489 L 646.052,201.113 L 642.131,202.249 L 644.092,199.418 L 653.895,199.418 L 649.695,200.262 L 657.265,203.359z"/>
    <path style="fill: #ffffff" d="M 642.968 197.172 L 646.338,198.295 L 654.454,194.919 L 658.109,196.049 L 656.142,193.224 L 646.611,193.224 L 650.539,194.062 L 642.968,197.172z"/>
    <path style="fill: #ffffff" d="M 641.566 200.262 L 638.19,199.139 L 630.34,202.515 L 626.419,201.392 L 628.38,204.489 L 638.19,204.489 L 633.989,203.359 L 641.566,200.262z"/>
    <path style="fill: #ffffff" d="M 627.263 194.062 L 630.626,192.952 L 638.761,196.049 L 642.404,195.192 L 640.449,198.022 L 630.905,198.022 L 634.84,197.172 L 627.263,194.062z"/>
    <path style="fill: #ffffff" d="M 657.538 203.651 L 654.188,204.775 L 646.338,201.392 L 642.404,202.515 L 644.364,199.711 L 654.188,199.711 L 649.98,200.548 L 657.538,203.651z"/>
    <path style="fill: none; fill-opacity:0; stroke-width: 0.02; stroke: #aae6ff" d="M 619.134 198.581 L 619.134,209.832"/>
    <path style="fill: none; fill-opacity:0; stroke-width: 0.02; stroke: #aae6ff" d="M 665.115 198.581 L 665.115,209.832"/>
  </g>
  <g>
    <path style="fill: #b7b79d" d="M 220.897 207.814 L 260.865,207.814 L 260.865,215.2 L 220.897,215.2 L 220.897,207.814z"/>
    <path style="fill: none; fill-opacity:0; stroke-width: 0.02; stroke: #494936" d="M 220.897 207.814 L 260.865,207.814 L 260.865,215.2 L 220.897,215.2 L 220.897,207.814"/>
    <path style="fill: #c9c9b6" d="M 220.897 207.814 L 225.135,203.796 L 265.103,203.796 L 260.865,207.814 L 220.897,207.814z"/>
    <path style="fill: none; fill-opacity:0; stroke-width: 0.02; stroke: #494936" d="M 220.897 207.814 L 225.135,203.796 L 265.103,203.796 L 260.865,207.814 L 220.897,207.814"/>
    <path style="fill: none; fill-opacity:0; stroke-width: 2.12; stroke: #000000" d="M 258.63 211.176 L 249.039,211.176"/>
    <path style="fill: #7a7a5a" d="M 260.865 215.2 L 265.103,210.95 L 265.103,203.796 L 260.865,207.814 L 260.865,215.2z"/>
    <path style="fill: none; fill-opacity:0; stroke-width: 0.02; stroke: #494936" d="M 260.865 215.2 L 265.103,210.95 L 265.103,203.796 L 260.865,207.814 L 260.865,215.2"/>
    <path style="fill: #c9c9b6" d="M 221.123 219.885 L 225.582,214.3 L 256.401,214.3 L 251.942,219.885 L 221.123,219.885z"/>
    <path style="fill: none; fill-opacity:0; stroke-width: 0.02; stroke: #494936" d="M 221.123 219.885 L 225.582,214.3 L 256.401,214.3 L 251.942,219.885 L 221.123,219.885"/>
    <path style="fill: #7a7a5a" d="M 251.942 221 L 256.401,216.315 L 256.401,214.3 L 251.942,219.885 L 251.942,221z"/>
    <path style="fill: none; fill-opacity:0; stroke-width: 0.02; stroke: #494936" d="M 251.942 221 L 256.401,216.315 L 256.401,214.3 L 251.942,219.885 L 251.942,221"/>
    <path style="fill: #b7b79d" d="M 221.123 219.885 L 251.942,219.885 L 251.942,221 L 221.123,221 L 221.123,219.885z"/>
    <path style="fill: none; fill-opacity:0; stroke-width: 0.02; stroke: #494936" d="M 221.123 219.885 L 251.942,219.885 L 251.942,221 L 221.123,221 L 221.123,219.885"/>
    <path style="fill: #000000" d="M 226.923 206.926 L 230.28,203.796 L 258.63,203.796 L 255.513,206.926 L 226.923,206.926z"/>
    <path style="fill: none; fill-opacity:0; stroke-width: 0.02; stroke: #000000" d="M 226.923 206.926 L 230.28,203.796 L 258.63,203.796 L 255.513,206.926 L 226.923,206.926"/>
    <path style="fill: #c9c9b6" d="M 226.696 183.903 L 229.832,181 L 258.195,181 L 255.059,183.903 L 226.696,183.903z"/>
    <path style="fill: none; fill-opacity:0; stroke-width: 0.02; stroke: #494936" d="M 226.696 183.903 L 229.832,181 L 258.195,181 L 255.059,183.903 L 226.696,183.903"/>
    <path style="fill: #b7b79d" d="M 226.696 183.903 L 255.286,183.903 L 255.286,206.472 L 226.696,206.472 L 226.696,183.903z"/>
    <path style="fill: none; fill-opacity:0; stroke-width: 0.02; stroke: #494936" d="M 226.696 183.903 L 255.273,183.903 L 255.273,206.466 L 226.696,206.466 L 226.696,183.903"/>
    <path style="fill: #ffffff" d="M 229.152 186.8 L 252.824,186.8 L 252.824,204.237 L 229.152,204.237 L 229.152,186.8z"/>
    <path style="fill: none; fill-opacity:0; stroke-width: 0.02; stroke: #494936" d="M 229.152 186.8 L 252.824,186.8 L 252.824,204.23 L 229.152,204.23 L 229.152,186.8"/>
    <path style="fill: #7a7a5a" d="M 255.059 206.258 L 258.195,203.128 L 258.195,181 L 255.059,183.903 L 255.059,206.258z"/>
    <path style="fill: none; fill-opacity:0; stroke-width: 0.02; stroke: #494936" d="M 255.059 206.258 L 258.195,203.128 L 258.195,181 L 255.059,183.903 L 255.059,206.258"/>
  </g>
  <g>
    <path style="fill: #b7b79d" d="M 817.58 184.364 L 817.58,227.272 L 842.941,227.272 L 842.941,184.364 L 817.58,184.364z"/>
    <path style="fill: none; fill-opacity:0; stroke-width: 0.02; stroke: #494936" d="M 817.58 184.364 L 817.58,227.272 L 842.941,227.272 L 842.941,184.364 L 817.58,184.364"/>
    <path style="fill: #c9c9b6" d="M 817.58 184.364 L 821.016,180.912 L 846.37,180.912 L 842.941,184.364 L 817.58,184.364z"/>
    <path style="fill: none; fill-opacity:0; stroke-width: 0.02; stroke: #494936" d="M 817.58 184.364 L 821.016,180.912 L 846.203,180.912"/>
    <path style="fill: none; fill-opacity:0; stroke-width: 0.02; stroke: #494936" d="M 846.203 181.087 L 842.941,184.364 L 817.58,184.364"/>
    <path style="fill: #c9c9b6" d="M 819.143 186.86 L 830.727,186.86 L 830.727,192.489 L 819.143,192.489 L 819.143,186.86z"/>
    <path style="fill: none; fill-opacity:0; stroke-width: 0.02; stroke: #626248" d="M 819.143 186.86 L 830.719,186.86 L 830.719,192.481 L 819.143,192.481 L 819.143,186.86"/>
    <path style="fill: none; fill-opacity:0; stroke-width: 0.6; stroke: #ecece7" d="M 820.705 189.682 L 828.83,189.682"/>
    <path style="fill: #7a7a5a" d="M 842.941 227.272 L 846.37,223.813 L 846.37,180.912 L 842.941,184.364 L 842.941,227.272z"/>
    <path style="fill: none; fill-opacity:0; stroke-width: 0.02; stroke: #494936" d="M 842.941 227.272 L 846.203,223.987"/>
    <path style="fill: none; fill-opacity:0; stroke-width: 0.02; stroke: #494936" d="M 846.203 181.087 L 842.941,184.364 L 842.941,227.272"/>
    <path style="fill: none; fill-opacity:0; stroke-width: 0.6; stroke: #ecece7" d="M 817.898 224.442 L 842.933,224.442"/>
    <path style="fill: none; fill-opacity:0; stroke-width: 0.6; stroke: #000000" d="M 817.898 201.585 L 842.933,201.585"/>
    <path style="fill: none; fill-opacity:0; stroke-width: 0.6; stroke: #494936" d="M 817.58 224.131 L 842.91,224.131"/>
    <path style="fill: none; fill-opacity:0; stroke-width: 0.6; stroke: #000000" d="M 817.58 201.266 L 842.91,201.266"/>
    <path style="fill: none; fill-opacity:0; stroke-width: 0.02; stroke: #ecece7" d="M 819.143 192.185 L 819.143,186.86 L 830.408,186.86"/>
  </g>
  <line style="fill: none; fill-opacity:0; stroke-width: 2; stroke: #000000" x1="265.117" y1="204.577" x2="410.119" y2="204.578"/>
  <line style="fill: none; fill-opacity:0; stroke-width: 2; stroke: #000000" x1="455.281" y1="204.552" x2="619.123" y2="204.356"/>
  <line style="fill: none; fill-opacity:0; stroke-width: 2; stroke: #000000" x1="665.082" y1="204.303" x2="817.564" y2="204.133"/>
  <text font-size="12.7998" style="fill: #000000;text-anchor:start;font-family:sans-serif;font-style:normal;font-weight:normal" x="427" y="236">
    <tspan x="427" y="236">R1</tspan>
  </text>
  <text font-size="12.7998" style="fill: #000000;text-anchor:start;font-family:sans-serif;font-style:normal;font-weight:normal" x="636" y="234">
    <tspan x="636" y="234">R2</tspan>
  </text>
  <text font-size="12.7998" style="fill: #000000;text-anchor:start;font-family:sans-serif;font-style:normal;font-weight:normal" x="223" y="238">
    <tspan x="223" y="238">Client</tspan>
  </text>
  <text font-size="12.7998" style="fill: #000000;text-anchor:start;font-family:sans-serif;font-style:normal;font-weight:normal" x="811" y="240">
    <tspan x="811" y="240">Server</tspan>
  </text>
  <text font-size="12.7998" style="fill: #000000;text-anchor:start;font-family:sans-serif;font-style:normal;font-weight:normal" x="193" y="253">
    <tspan x="193" y="253">192.168.0.11/24</tspan>
  </text>
  <text font-size="12.7998" style="fill: #000000;text-anchor:start;font-family:sans-serif;font-style:normal;font-weight:normal" x="784.7" y="253.25">
    <tspan x="784.7" y="253.25">192.168.2.22/24</tspan>
  </text>
  <text font-size="12.7998" style="fill: #000000;text-anchor:start;font-family:sans-serif;font-style:normal;font-weight:normal" x="380" y="199">
    <tspan x="380" y="199">eth0</tspan>
  </text>
  <text font-size="12.7998" style="fill: #000000;text-anchor:start;font-family:sans-serif;font-style:normal;font-weight:normal" x="588.7" y="198.8">
    <tspan x="588.7" y="198.8">eth0</tspan>
  </text>
  <text font-size="12.7998" style="fill: #000000;text-anchor:start;font-family:sans-serif;font-style:normal;font-weight:normal" x="456.4" y="198.7">
    <tspan x="456.4" y="198.7">eth1</tspan>
  </text>
  <text font-size="12.7998" style="fill: #000000;text-anchor:start;font-family:sans-serif;font-style:normal;font-weight:normal" x="665.7" y="198.8">
    <tspan x="665.7" y="198.8">eth1</tspan>
  </text>
  <text font-size="12.7998" style="fill: #000000;text-anchor:start;font-family:sans-serif;font-style:normal;font-weight:normal" x="314" y="183.927">
    <tspan x="314" y="183.927">192.168.0.1/24</tspan>
  </text>
  <text font-size="12.7998" style="fill: #000000;text-anchor:start;font-family:sans-serif;font-style:normal;font-weight:normal" x="523.7" y="185.177">
    <tspan x="523.7" y="185.177">192.168.1.2/24</tspan>
  </text>
  <text font-size="12.7998" style="fill: #000000;text-anchor:start;font-family:sans-serif;font-style:normal;font-weight:normal" x="456.7" y="221.177">
    <tspan x="456.7" y="221.177">192.168.1.1/24</tspan>
  </text>
  <text font-size="12.7998" style="fill: #000000;text-anchor:start;font-family:sans-serif;font-style:normal;font-weight:normal" x="666.7" y="217.177">
    <tspan x="666.7" y="217.177">192.168.2.1/24</tspan>
  </text>
</svg>
