<?xml version="1.0" encoding="UTF-8" standalone="no"?>
<!DOCTYPE svg PUBLIC "-//W3C//DTD SVG 1.0//EN" "http://www.w3.org/TR/2001/PR-SVG-20010719/DTD/svg10.dtd">
<svg width="24cm" height="12cm" viewBox="334 85 462 232" xmlns="http://www.w3.org/2000/svg" xmlns:xlink="http://www.w3.org/1999/xlink">
  <g>
    <path style="fill: #0078aa" d="M 594.387 210.975 L 594.348,210.566 L 594.264,210.157 L 594.121,209.755 L 593.92,209.358 L 593.647,208.956 L 593.329,208.566 L 592.946,208.183 L 592.517,207.807 L 592.024,207.437 L 591.479,207.08 L 590.888,206.736 L 590.245,206.385 L 589.55,206.054 L 588.81,205.742 L 588.018,205.443 L 587.187,205.158 L 586.324,204.879 L 585.415,204.625 L 584.473,204.385 L 583.493,204.158 L 582.48,203.95 L 581.435,203.775 L 580.37,203.593 L 579.292,203.45 L 578.182,203.314 L 577.052,203.21 L 575.91,203.113 L 574.754,203.048 L 573.598,202.983 L 572.43,202.963 L 571.261,202.944 L 571.261,202.944 L 570.086,202.963 L 568.917,202.983 L 567.761,203.048 L 566.606,203.113 L 565.463,203.21 L 564.333,203.314 L 563.223,203.45 L 562.139,203.593 L 561.074,203.775 L 560.035,203.95 L 559.022,204.158 L 558.042,204.385 L 557.101,204.625 L 556.192,204.879 L 555.322,205.158 L 554.497,205.443 L 553.705,205.742 L 552.965,206.054 L 552.27,206.385 L 551.627,206.736 L 551.037,207.08 L 550.491,207.437 L 549.998,207.807 L 549.569,208.183 L 549.186,208.566 L 548.868,208.956 L 548.595,209.358 L 548.388,209.755 L 548.238,210.157 L 548.16,210.566 L 548.128,210.975 L 548.128,210.975 L 548.16,211.378 L 548.238,211.787 L 548.388,212.189 L 548.595,212.585 L 548.868,212.988 L 549.186,213.377 L 549.569,213.76 L 549.998,214.137 L 550.491,214.507 L 551.037,214.864 L 551.627,215.221 L 552.27,215.559 L 552.965,215.89 L 553.705,216.202 L 554.497,216.513 L 555.322,216.799 L 556.192,217.065 L 557.101,217.325 L 558.042,217.559 L 559.022,217.786 L 560.035,217.994 L 561.074,218.182 L 562.139,218.351 L 563.223,218.506 L 564.333,218.63 L 565.463,218.747 L 566.606,218.831 L 567.761,218.909 L 568.917,218.961 L 570.086,218.993 L 571.261,219 L 571.261,219 L 572.43,218.993 L 573.598,218.961 L 574.754,218.909 L 575.91,218.831 L 577.052,218.747 L 578.182,218.63 L 579.292,218.506 L 580.37,218.351 L 581.435,218.182 L 582.48,217.994 L 583.493,217.786 L 584.473,217.559 L 585.415,217.325 L 586.324,217.065 L 587.187,216.799 L 588.018,216.513 L 588.81,216.202 L 589.55,215.89 L 590.245,215.559 L 590.888,215.221 L 591.479,214.864 L 592.024,214.507 L 592.517,214.137 L 592.946,213.76 L 593.329,213.377 L 593.647,212.988 L 593.92,212.585 L 594.121,212.189 L 594.264,211.787 L 594.348,211.378 L 594.387,210.975z"/>
    <path style="fill: none; fill-opacity:0; stroke-width: 0.02; stroke: #aae6ff" d="M 594.115 210.845 L 594.082,210.436 L 594.004,210.047 L 593.855,209.644 L 593.654,209.255 L 593.387,208.865 L 593.05,208.482 L 592.699,208.112 L 592.258,207.735 L 591.771,207.372 L 591.232,207.008 L 590.635,206.671 L 589.998,206.333 L 589.31,206.008 L 588.577,205.697 L 587.797,205.398 L 586.966,205.125 L 586.096,204.866 L 585.2,204.599 L 584.265,204.379 L 583.292,204.145 L 582.279,203.944 L 581.253,203.762 L 580.201,203.593 L 579.117,203.45 L 578.02,203.314 L 576.89,203.21 L 575.76,203.113 L 574.611,203.048 L 573.455,203.002 L 572.293,202.963 L 571.131,202.963 L 571.131,202.963 L 569.956,202.963 L 568.8,203.002 L 567.638,203.048 L 566.502,203.113 L 565.366,203.21 L 564.242,203.314 L 563.139,203.45 L 562.054,203.593 L 560.996,203.762 L 559.97,203.944 L 558.958,204.145 L 557.984,204.379 L 557.055,204.599 L 556.153,204.866 L 555.283,205.125 L 554.458,205.398 L 553.686,205.697 L 552.952,206.008 L 552.257,206.333 L 551.608,206.671 L 551.03,207.008 L 550.485,207.372 L 549.998,207.735 L 549.569,208.112 L 549.193,208.482 L 548.868,208.865 L 548.608,209.255 L 548.401,209.644 L 548.251,210.047 L 548.167,210.436 L 548.134,210.845 L 548.134,210.845 L 548.167,211.241 L 548.251,211.65 L 548.401,212.033 L 548.608,212.429 L 548.868,212.826 L 549.193,213.202 L 549.569,213.579 L 549.998,213.955 L 550.485,214.312 L 551.03,214.676 L 551.608,215.02 L 552.257,215.345 L 552.952,215.676 L 553.686,215.994 L 554.458,216.28 L 555.283,216.559 L 556.153,216.825 L 557.055,217.085 L 557.984,217.312 L 558.958,217.533 L 559.97,217.74 L 560.996,217.922 L 562.054,218.084 L 563.139,218.24 L 564.242,218.37 L 565.366,218.474 L 566.502,218.565 L 567.638,218.63 L 568.8,218.688 L 569.956,218.721 L 571.131,218.727 L 571.131,218.727 L 572.293,218.721 L 573.455,218.688 L 574.611,218.63 L 575.76,218.565 L 576.89,218.474 L 578.02,218.37 L 579.117,218.24 L 580.201,218.084 L 581.253,217.922 L 582.279,217.74 L 583.292,217.533 L 584.265,217.312 L 585.2,217.085 L 586.096,216.825 L 586.966,216.559 L 587.797,216.28 L 588.577,215.994 L 589.31,215.676 L 589.998,215.345 L 590.635,215.02 L 591.232,214.676 L 591.771,214.312 L 592.258,213.955 L 592.699,213.579 L 593.05,213.202 L 593.387,212.826 L 593.654,212.429 L 593.855,212.033 L 594.004,211.65 L 594.082,211.241 L 594.115,210.845"/>
    <path style="fill: #0078aa" d="M 548.134 199.853 L 548.134,211.124 L 594.115,211.124 L 594.115,199.853 L 548.134,199.853z"/>
    <path style="fill: #00b4ff" d="M 594.387 199.717 L 594.348,199.308 L 594.264,198.893 L 594.121,198.496 L 593.92,198.094 L 593.647,197.691 L 593.329,197.302 L 592.946,196.919 L 592.517,196.549 L 592.024,196.172 L 591.479,195.822 L 590.888,195.464 L 590.245,195.127 L 589.55,194.789 L 588.81,194.484 L 588.018,194.179 L 587.187,193.887 L 586.324,193.614 L 585.415,193.361 L 584.473,193.121 L 583.493,192.9 L 582.48,192.699 L 581.435,192.504 L 580.37,192.335 L 579.292,192.179 L 578.182,192.049 L 577.052,191.939 L 575.91,191.848 L 574.754,191.777 L 573.598,191.725 L 572.43,191.692 L 571.261,191.686 L 571.261,191.686 L 570.086,191.692 L 568.917,191.725 L 567.761,191.777 L 566.606,191.848 L 565.463,191.939 L 564.333,192.049 L 563.223,192.179 L 562.139,192.335 L 561.074,192.504 L 560.035,192.699 L 559.022,192.9 L 558.042,193.121 L 557.101,193.361 L 556.192,193.614 L 555.322,193.887 L 554.497,194.179 L 553.705,194.484 L 552.965,194.789 L 552.27,195.127 L 551.627,195.464 L 551.037,195.822 L 550.491,196.172 L 549.998,196.549 L 549.569,196.919 L 549.186,197.302 L 548.868,197.691 L 548.595,198.094 L 548.388,198.496 L 548.238,198.893 L 548.16,199.308 L 548.128,199.717 L 548.128,199.717 L 548.16,200.12 L 548.238,200.529 L 548.388,200.931 L 548.595,201.321 L 548.868,201.723 L 549.186,202.113 L 549.569,202.496 L 549.998,202.879 L 550.491,203.249 L 551.037,203.6 L 551.627,203.95 L 552.27,204.301 L 552.965,204.625 L 553.705,204.937 L 554.497,205.242 L 555.322,205.528 L 556.192,205.807 L 557.101,206.054 L 558.042,206.294 L 559.022,206.521 L 560.035,206.736 L 561.074,206.911 L 562.139,207.086 L 563.223,207.242 L 564.333,207.365 L 565.463,207.476 L 566.606,207.567 L 567.761,207.638 L 568.917,207.696 L 570.086,207.729 L 571.261,207.735 L 571.261,207.735 L 572.43,207.729 L 573.598,207.696 L 574.754,207.638 L 575.91,207.567 L 577.052,207.476 L 578.182,207.365 L 579.292,207.242 L 580.37,207.086 L 581.435,206.911 L 582.48,206.736 L 583.493,206.521 L 584.473,206.294 L 585.415,206.054 L 586.324,205.807 L 587.187,205.528 L 588.018,205.242 L 588.81,204.937 L 589.55,204.625 L 590.245,204.301 L 590.888,203.95 L 591.479,203.6 L 592.024,203.249 L 592.517,202.879 L 592.946,202.496 L 593.329,202.113 L 593.647,201.723 L 593.92,201.321 L 594.121,200.931 L 594.264,200.529 L 594.348,200.12 L 594.387,199.717z"/>
    <path style="fill: none; fill-opacity:0; stroke-width: 0.02; stroke: #aae6ff" d="M 594.115 199.581 L 594.082,199.172 L 594.004,198.782 L 593.855,198.386 L 593.654,197.99 L 593.387,197.607 L 593.05,197.211 L 592.699,196.847 L 592.258,196.471 L 591.771,196.114 L 591.232,195.744 L 590.635,195.413 L 589.998,195.068 L 589.31,194.744 L 588.577,194.445 L 587.797,194.133 L 586.966,193.874 L 586.096,193.595 L 585.2,193.341 L 584.265,193.108 L 583.292,192.88 L 582.279,192.679 L 581.253,192.497 L 580.201,192.335 L 579.117,192.179 L 578.02,192.049 L 576.89,191.946 L 575.76,191.848 L 574.611,191.783 L 573.455,191.731 L 572.293,191.699 L 571.131,191.692 L 571.131,191.692 L 569.956,191.699 L 568.8,191.731 L 567.638,191.783 L 566.502,191.848 L 565.366,191.946 L 564.242,192.049 L 563.139,192.179 L 562.054,192.335 L 560.996,192.497 L 559.97,192.679 L 558.958,192.88 L 557.984,193.108 L 557.055,193.341 L 556.153,193.595 L 555.283,193.874 L 554.458,194.133 L 553.686,194.445 L 552.952,194.744 L 552.257,195.068 L 551.608,195.413 L 551.03,195.744 L 550.485,196.114 L 549.998,196.471 L 549.569,196.847 L 549.193,197.211 L 548.868,197.607 L 548.608,197.99 L 548.401,198.386 L 548.251,198.782 L 548.167,199.172 L 548.134,199.581 L 548.134,199.581 L 548.167,199.983 L 548.251,200.379 L 548.401,200.775 L 548.608,201.165 L 548.868,201.554 L 549.193,201.944 L 549.569,202.314 L 549.998,202.691 L 550.485,203.048 L 551.03,203.411 L 551.608,203.755 L 552.257,204.08 L 552.952,204.411 L 553.686,204.723 L 554.458,205.015 L 555.283,205.294 L 556.153,205.56 L 557.055,205.814 L 557.984,206.047 L 558.958,206.275 L 559.97,206.489 L 560.996,206.658 L 562.054,206.833 L 563.139,206.982 L 564.242,207.106 L 565.366,207.222 L 566.502,207.313 L 567.638,207.372 L 568.8,207.43 L 569.956,207.463 L 571.131,207.469 L 571.131,207.469 L 572.293,207.463 L 573.455,207.43 L 574.611,207.372 L 575.76,207.313 L 576.89,207.222 L 578.02,207.106 L 579.117,206.982 L 580.201,206.833 L 581.253,206.658 L 582.279,206.489 L 583.292,206.275 L 584.265,206.047 L 585.2,205.814 L 586.096,205.56 L 586.966,205.294 L 587.797,205.015 L 588.577,204.723 L 589.31,204.411 L 589.998,204.08 L 590.635,203.755 L 591.232,203.411 L 591.771,203.048 L 592.258,202.691 L 592.699,202.314 L 593.05,201.944 L 593.387,201.554 L 593.654,201.165 L 593.855,200.775 L 594.004,200.379 L 594.082,199.983 L 594.115,199.581"/>
    <path style="fill: #000000" d="M 571.689 197.893 L 575.053,199.022 L 583.188,195.633 L 586.83,196.756 L 584.863,193.952 L 575.338,193.952 L 579.253,194.789 L 571.689,197.893z"/>
    <path style="fill: #000000" d="M 570.281 200.99 L 566.924,199.853 L 559.068,203.249 L 555.146,202.113 L 557.101,205.21 L 566.924,205.21 L 562.71,204.08 L 570.281,200.99z"/>
    <path style="fill: #000000" d="M 555.984 194.789 L 559.341,193.666 L 567.482,196.756 L 571.131,195.919 L 569.17,198.724 L 559.626,198.724 L 563.548,197.893 L 555.984,194.789z"/>
    <path style="fill: #000000" d="M 586.265 204.359 L 582.896,205.489 L 575.053,202.113 L 571.131,203.249 L 573.092,200.418 L 582.896,200.418 L 578.695,201.262 L 586.265,204.359z"/>
    <path style="fill: #ffffff" d="M 571.969 198.172 L 575.338,199.295 L 583.454,195.919 L 587.109,197.049 L 585.142,194.224 L 575.611,194.224 L 579.539,195.062 L 571.969,198.172z"/>
    <path style="fill: #ffffff" d="M 570.566 201.262 L 567.19,200.139 L 559.341,203.515 L 555.419,202.392 L 557.38,205.489 L 567.19,205.489 L 562.989,204.359 L 570.566,201.262z"/>
    <path style="fill: #ffffff" d="M 556.263 195.062 L 559.626,193.952 L 567.761,197.049 L 571.404,196.192 L 569.449,199.022 L 559.905,199.022 L 563.84,198.172 L 556.263,195.062z"/>
    <path style="fill: #ffffff" d="M 586.538 204.651 L 583.188,205.775 L 575.338,202.392 L 571.404,203.515 L 573.364,200.71 L 583.188,200.71 L 578.981,201.548 L 586.538,204.651z"/>
    <path style="fill: none; fill-opacity:0; stroke-width: 0.02; stroke: #aae6ff" d="M 548.134 199.581 L 548.134,210.832"/>
    <path style="fill: none; fill-opacity:0; stroke-width: 0.02; stroke: #aae6ff" d="M 594.115 199.581 L 594.115,210.832"/>
  </g>
  <g>
    <path style="fill: #b7b79d" d="M 363.896 270.814 L 403.865,270.814 L 403.865,278.2 L 363.896,278.2 L 363.896,270.814z"/>
    <path style="fill: none; fill-opacity:0; stroke-width: 0.02; stroke: #494936" d="M 363.896 270.814 L 403.865,270.814 L 403.865,278.2 L 363.896,278.2 L 363.896,270.814"/>
    <path style="fill: #c9c9b6" d="M 363.896 270.814 L 368.134,266.796 L 408.103,266.796 L 403.865,270.814 L 363.896,270.814z"/>
    <path style="fill: none; fill-opacity:0; stroke-width: 0.02; stroke: #494936" d="M 363.896 270.814 L 368.134,266.796 L 408.103,266.796 L 403.865,270.814 L 363.896,270.814"/>
    <path style="fill: none; fill-opacity:0; stroke-width: 2.12; stroke: #000000" d="M 401.629 274.176 L 392.038,274.176"/>
    <path style="fill: #7a7a5a" d="M 403.865 278.2 L 408.103,273.95 L 408.103,266.796 L 403.865,270.814 L 403.865,278.2z"/>
    <path style="fill: none; fill-opacity:0; stroke-width: 0.02; stroke: #494936" d="M 403.865 278.2 L 408.103,273.95 L 408.103,266.796 L 403.865,270.814 L 403.865,278.2"/>
    <path style="fill: #c9c9b6" d="M 364.123 282.885 L 368.581,277.3 L 399.4,277.3 L 394.941,282.885 L 364.123,282.885z"/>
    <path style="fill: none; fill-opacity:0; stroke-width: 0.02; stroke: #494936" d="M 364.123 282.885 L 368.581,277.3 L 399.4,277.3 L 394.941,282.885 L 364.123,282.885"/>
    <path style="fill: #7a7a5a" d="M 394.941 284 L 399.4,279.315 L 399.4,277.3 L 394.941,282.885 L 394.941,284z"/>
    <path style="fill: none; fill-opacity:0; stroke-width: 0.02; stroke: #494936" d="M 394.941 284 L 399.4,279.315 L 399.4,277.3 L 394.941,282.885 L 394.941,284"/>
    <path style="fill: #b7b79d" d="M 364.123 282.885 L 394.941,282.885 L 394.941,284 L 364.123,284 L 364.123,282.885z"/>
    <path style="fill: none; fill-opacity:0; stroke-width: 0.02; stroke: #494936" d="M 364.123 282.885 L 394.941,282.885 L 394.941,284 L 364.123,284 L 364.123,282.885"/>
    <path style="fill: #000000" d="M 369.922 269.926 L 373.279,266.796 L 401.629,266.796 L 398.512,269.926 L 369.922,269.926z"/>
    <path style="fill: none; fill-opacity:0; stroke-width: 0.02; stroke: #000000" d="M 369.922 269.926 L 373.279,266.796 L 401.629,266.796 L 398.512,269.926 L 369.922,269.926"/>
    <path style="fill: #c9c9b6" d="M 369.696 246.903 L 372.832,244 L 401.194,244 L 398.058,246.903 L 369.696,246.903z"/>
    <path style="fill: none; fill-opacity:0; stroke-width: 0.02; stroke: #494936" d="M 369.696 246.903 L 372.832,244 L 401.194,244 L 398.058,246.903 L 369.696,246.903"/>
    <path style="fill: #b7b79d" d="M 369.696 246.903 L 398.285,246.903 L 398.285,269.472 L 369.696,269.472 L 369.696,246.903z"/>
    <path style="fill: none; fill-opacity:0; stroke-width: 0.02; stroke: #494936" d="M 369.696 246.903 L 398.273,246.903 L 398.273,269.466 L 369.696,269.466 L 369.696,246.903"/>
    <path style="fill: #ffffff" d="M 372.152 249.8 L 395.823,249.8 L 395.823,267.237 L 372.152,267.237 L 372.152,249.8z"/>
    <path style="fill: none; fill-opacity:0; stroke-width: 0.02; stroke: #494936" d="M 372.152 249.8 L 395.823,249.8 L 395.823,267.23 L 372.152,267.23 L 372.152,249.8"/>
    <path style="fill: #7a7a5a" d="M 398.058 269.258 L 401.194,266.128 L 401.194,244 L 398.058,246.903 L 398.058,269.258z"/>
    <path style="fill: none; fill-opacity:0; stroke-width: 0.02; stroke: #494936" d="M 398.058 269.258 L 401.194,266.128 L 401.194,244 L 398.058,246.903 L 398.058,269.258"/>
  </g>
  <g>
    <path style="fill: #b7b79d" d="M 721.58 120.364 L 721.58,163.272 L 746.941,163.272 L 746.941,120.364 L 721.58,120.364z"/>
    <path style="fill: none; fill-opacity:0; stroke-width: 0.02; stroke: #494936" d="M 721.58 120.364 L 721.58,163.272 L 746.941,163.272 L 746.941,120.364 L 721.58,120.364"/>
    <path style="fill: #c9c9b6" d="M 721.58 120.364 L 725.017,116.912 L 750.37,116.912 L 746.941,120.364 L 721.58,120.364z"/>
    <path style="fill: none; fill-opacity:0; stroke-width: 0.02; stroke: #494936" d="M 721.58 120.364 L 725.017,116.912 L 750.203,116.912"/>
    <path style="fill: none; fill-opacity:0; stroke-width: 0.02; stroke: #494936" d="M 750.203 117.087 L 746.941,120.364 L 721.58,120.364"/>
    <path style="fill: #c9c9b6" d="M 723.143 122.86 L 734.727,122.86 L 734.727,128.489 L 723.143,128.489 L 723.143,122.86z"/>
    <path style="fill: none; fill-opacity:0; stroke-width: 0.02; stroke: #626248" d="M 723.143 122.86 L 734.719,122.86 L 734.719,128.481 L 723.143,128.481 L 723.143,122.86"/>
    <path style="fill: none; fill-opacity:0; stroke-width: 0.6; stroke: #ecece7" d="M 724.706 125.682 L 732.83,125.682"/>
    <path style="fill: #7a7a5a" d="M 746.941 163.272 L 750.37,159.813 L 750.37,116.912 L 746.941,120.364 L 746.941,163.272z"/>
    <path style="fill: none; fill-opacity:0; stroke-width: 0.02; stroke: #494936" d="M 746.941 163.272 L 750.203,159.987"/>
    <path style="fill: none; fill-opacity:0; stroke-width: 0.02; stroke: #494936" d="M 750.203 117.087 L 746.941,120.364 L 746.941,163.272"/>
    <path style="fill: none; fill-opacity:0; stroke-width: 0.6; stroke: #ecece7" d="M 721.899 160.442 L 746.933,160.442"/>
    <path style="fill: none; fill-opacity:0; stroke-width: 0.6; stroke: #000000" d="M 721.899 137.585 L 746.933,137.585"/>
    <path style="fill: none; fill-opacity:0; stroke-width: 0.6; stroke: #494936" d="M 721.58 160.131 L 746.911,160.131"/>
    <path style="fill: none; fill-opacity:0; stroke-width: 0.6; stroke: #000000" d="M 721.58 137.266 L 746.911,137.266"/>
    <path style="fill: none; fill-opacity:0; stroke-width: 0.02; stroke: #ecece7" d="M 723.143 128.185 L 723.143,122.86 L 734.408,122.86"/>
  </g>
  <line style="fill: none; fill-opacity:0; stroke-width: 2; stroke: #000000" x1="386.283" y1="243.992" x2="386" y2="216"/>
  <line style="fill: none; fill-opacity:0; stroke-width: 2; stroke: #000000" x1="410.286" y1="204.67" x2="548.13" y2="205.234"/>
  <text font-size="12.8" style="fill: #000000;text-anchor:start;font-family:sans-serif;font-style:normal;font-weight:normal" x="550" y="187">
    <tspan x="550" y="187">router</tspan>
  </text>
  <text font-size="12.8" style="fill: #000000;text-anchor:start;font-family:sans-serif;font-style:normal;font-weight:normal" x="364" y="299">
    <tspan x="364" y="299">client1</tspan>
  </text>
  <text font-size="12.8" style="fill: #000000;text-anchor:start;font-family:sans-serif;font-style:normal;font-weight:normal" x="711" y="98">
    <tspan x="711" y="98">server2</tspan>
  </text>
  <text font-size="12.8" style="fill: #000000;text-anchor:start;font-family:sans-serif;font-style:normal;font-weight:normal" x="334" y="314">
    <tspan x="334" y="314">192.168.1.10/24</tspan>
  </text>
  <text font-size="12.8" style="fill: #000000;text-anchor:start;font-family:sans-serif;font-style:normal;font-weight:normal" x="684.7" y="111.25">
    <tspan x="684.7" y="111.25">192.168.2.200/24</tspan>
  </text>
  <text font-size="12.8" style="fill: #000000;text-anchor:start;font-family:sans-serif;font-style:normal;font-weight:normal" x="517.7" y="217.8">
    <tspan x="517.7" y="217.8">eth0</tspan>
  </text>
  <text font-size="12.8" style="fill: #000000;text-anchor:start;font-family:sans-serif;font-style:normal;font-weight:normal" x="595.7" y="217.8">
    <tspan x="595.7" y="217.8">eth1</tspan>
  </text>
  <text font-size="12.8" style="fill: #000000;text-anchor:start;font-family:sans-serif;font-style:normal;font-weight:normal" x="452.7" y="230.178">
    <tspan x="452.7" y="230.178">192.168.1.1/24</tspan>
  </text>
  <text font-size="12.8" style="fill: #000000;text-anchor:start;font-family:sans-serif;font-style:normal;font-weight:normal" x="594.7" y="230.178">
    <tspan x="594.7" y="230.178">192.168.2.1/24</tspan>
  </text>
  <line style="fill: none; fill-opacity:0; stroke-width: 2; stroke: #000000" x1="593.85" y1="205.137" x2="714.122" y2="204.12"/>
  <line style="fill: none; fill-opacity:0; stroke-width: 2; stroke: #000000" x1="736.776" y1="192.921" x2="736.327" y2="163.284"/>
  <text font-size="12.8" style="fill: #000000;text-anchor:start;font-family:sans-serif;font-style:normal;font-weight:normal" x="455.7" y="195.8">
    <tspan x="455.7" y="195.8">intnet1</tspan>
  </text>
  <text font-size="12.8" style="fill: #000000;text-anchor:start;font-family:sans-serif;font-style:normal;font-weight:normal" x="631.4" y="195.7">
    <tspan x="631.4" y="195.7">intnet2</tspan>
  </text>
  <g>
    <path style="fill: #0096d4" d="M 361.43 205.47 L 361.43,215.204 L 399.939,215.204 L 399.939,205.47 L 361.43,205.47z"/>
    <path style="fill: none; fill-opacity:0; stroke-width: 0.02; stroke: #aae6ff" d="M 361.43 205.47 L 361.43,215.204 L 399.939,215.204 L 399.939,205.47 L 361.43,205.47"/>
    <path style="fill: #005a80" d="M 399.939 205.47 L 411.865,194 L 411.865,203.735 L 399.939,215.204 L 399.939,205.47z"/>
    <path style="fill: none; fill-opacity:0; stroke-width: 0.02; stroke: #aae6ff" d="M 399.939 205.47 L 411.865,194 L 411.865,203.735 L 399.939,215.204 L 399.939,205.47"/>
    <path style="fill: #00b4ff" d="M 399.939 205.47 L 411.865,194 L 373.329,194 L 361.43,205.47 L 399.939,205.47z"/>
    <path style="fill: none; fill-opacity:0; stroke-width: 0.02; stroke: #aae6ff" d="M 399.939 205.47 L 411.865,194 L 373.329,194 L 361.43,205.47 L 399.939,205.47"/>
    <path style="fill: #000000" d="M 385.578 199.914 L 384.185,201.281 L 393.981,201.281 L 392.588,203.034 L 400.64,200.94 L 396.443,199.213 L 395.383,199.914 L 385.578,199.914z"/>
    <path style="fill: #000000" d="M 390.485 195.393 L 389.083,196.778 L 398.888,196.778 L 397.136,198.512 L 405.538,196.094 L 400.991,194.342 L 400.307,195.393 L 390.485,195.393z"/>
    <path style="fill: #000000" d="M 382.074 203.735 L 383.502,202.333 L 373.329,202.333 L 375.081,200.598 L 367.011,202.674 L 371.226,204.427 L 371.936,203.735 L 382.074,203.735z"/>
    <path style="fill: #000000" d="M 386.639 198.845 L 388.041,197.487 L 378.236,197.487 L 379.997,195.735 L 371.577,198.162 L 376.124,199.914 L 376.825,198.845 L 386.639,198.845z"/>
    <path style="fill: #ffffff" d="M 385.929 200.239 L 384.536,201.632 L 394.34,201.632 L 392.939,203.375 L 400.991,201.281 L 396.776,199.555 L 395.742,200.239 L 385.929,200.239z"/>
    <path style="fill: #ffffff" d="M 390.836 195.735 L 389.434,197.119 L 399.239,197.119 L 397.486,198.845 L 405.898,196.418 L 401.35,194.692 L 400.64,195.735 L 390.836,195.735z"/>
    <path style="fill: #ffffff" d="M 382.424 204.076 L 383.826,202.674 L 373.688,202.674 L 375.414,200.94 L 367.371,203.034 L 371.577,204.769 L 372.269,204.076 L 382.424,204.076z"/>
    <path style="fill: #ffffff" d="M 386.972 199.213 L 388.391,197.812 L 378.569,197.812 L 380.33,196.094 L 371.936,198.512 L 376.483,200.239 L 377.167,199.213 L 386.972,199.213z"/>
  </g>
  <g>
    <path style="fill: #0096d4" d="M 711.724 204.393 L 711.724,214.128 L 750.233,214.128 L 750.233,204.393 L 711.724,204.393z"/>
    <path style="fill: none; fill-opacity:0; stroke-width: 0.02; stroke: #aae6ff" d="M 711.724 204.393 L 711.724,214.128 L 750.233,214.128 L 750.233,204.393 L 711.724,204.393"/>
    <path style="fill: #005a80" d="M 750.233 204.393 L 762.159,192.923 L 762.159,202.658 L 750.233,214.128 L 750.233,204.393z"/>
    <path style="fill: none; fill-opacity:0; stroke-width: 0.02; stroke: #aae6ff" d="M 750.233 204.393 L 762.159,192.923 L 762.159,202.658 L 750.233,214.128 L 750.233,204.393"/>
    <path style="fill: #00b4ff" d="M 750.233 204.393 L 762.159,192.923 L 723.623,192.923 L 711.724,204.393 L 750.233,204.393z"/>
    <path style="fill: none; fill-opacity:0; stroke-width: 0.02; stroke: #aae6ff" d="M 750.233 204.393 L 762.159,192.923 L 723.623,192.923 L 711.724,204.393 L 750.233,204.393"/>
    <path style="fill: #000000" d="M 735.872 198.838 L 734.479,200.205 L 744.275,200.205 L 742.882,201.957 L 750.934,199.863 L 746.737,198.137 L 745.677,198.838 L 735.872,198.838z"/>
    <path style="fill: #000000" d="M 740.779 194.317 L 739.377,195.701 L 749.182,195.701 L 747.43,197.436 L 755.832,195.018 L 751.285,193.265 L 750.601,194.317 L 740.779,194.317z"/>
    <path style="fill: #000000" d="M 732.368 202.658 L 733.796,201.256 L 723.623,201.256 L 725.375,199.521 L 717.305,201.598 L 721.52,203.35 L 722.23,202.658 L 732.368,202.658z"/>
    <path style="fill: #000000" d="M 736.933 197.769 L 738.335,196.411 L 728.53,196.411 L 730.291,194.658 L 721.871,197.085 L 726.418,198.838 L 727.119,197.769 L 736.933,197.769z"/>
    <path style="fill: #ffffff" d="M 736.223 199.162 L 734.83,200.555 L 744.634,200.555 L 743.233,202.299 L 751.285,200.205 L 747.07,198.479 L 746.036,199.162 L 736.223,199.162z"/>
    <path style="fill: #ffffff" d="M 741.13 194.658 L 739.728,196.043 L 749.533,196.043 L 747.78,197.769 L 756.192,195.342 L 751.644,193.616 L 750.934,194.658 L 741.13,194.658z"/>
    <path style="fill: #ffffff" d="M 732.718 203 L 734.12,201.598 L 723.982,201.598 L 725.708,199.863 L 717.665,201.957 L 721.871,203.692 L 722.563,203 L 732.718,203z"/>
    <path style="fill: #ffffff" d="M 737.266 198.137 L 738.685,196.735 L 728.863,196.735 L 730.624,195.018 L 722.23,197.436 L 726.777,199.162 L 727.461,198.137 L 737.266,198.137z"/>
  </g>
  <g>
    <path style="fill: #b7b79d" d="M 713.726 270.736 L 753.695,270.736 L 753.695,278.122 L 713.726,278.122 L 713.726,270.736z"/>
    <path style="fill: none; fill-opacity:0; stroke-width: 0.02; stroke: #494936" d="M 713.726 270.736 L 753.695,270.736 L 753.695,278.122 L 713.726,278.122 L 713.726,270.736"/>
    <path style="fill: #c9c9b6" d="M 713.726 270.736 L 717.964,266.718 L 757.933,266.718 L 753.695,270.736 L 713.726,270.736z"/>
    <path style="fill: none; fill-opacity:0; stroke-width: 0.02; stroke: #494936" d="M 713.726 270.736 L 717.964,266.718 L 757.933,266.718 L 753.695,270.736 L 713.726,270.736"/>
    <path style="fill: none; fill-opacity:0; stroke-width: 2.12; stroke: #000000" d="M 751.459 274.098 L 741.868,274.098"/>
    <path style="fill: #7a7a5a" d="M 753.695 278.122 L 757.933,273.872 L 757.933,266.718 L 753.695,270.736 L 753.695,278.122z"/>
    <path style="fill: none; fill-opacity:0; stroke-width: 0.02; stroke: #494936" d="M 753.695 278.122 L 757.933,273.872 L 757.933,266.718 L 753.695,270.736 L 753.695,278.122"/>
    <path style="fill: #c9c9b6" d="M 713.953 282.807 L 718.411,277.222 L 749.23,277.222 L 744.771,282.807 L 713.953,282.807z"/>
    <path style="fill: none; fill-opacity:0; stroke-width: 0.02; stroke: #494936" d="M 713.953 282.807 L 718.411,277.222 L 749.23,277.222 L 744.771,282.807 L 713.953,282.807"/>
    <path style="fill: #7a7a5a" d="M 744.771 283.922 L 749.23,279.237 L 749.23,277.222 L 744.771,282.807 L 744.771,283.922z"/>
    <path style="fill: none; fill-opacity:0; stroke-width: 0.02; stroke: #494936" d="M 744.771 283.922 L 749.23,279.237 L 749.23,277.222 L 744.771,282.807 L 744.771,283.922"/>
    <path style="fill: #b7b79d" d="M 713.953 282.807 L 744.771,282.807 L 744.771,283.922 L 713.953,283.922 L 713.953,282.807z"/>
    <path style="fill: none; fill-opacity:0; stroke-width: 0.02; stroke: #494936" d="M 713.953 282.807 L 744.771,282.807 L 744.771,283.922 L 713.953,283.922 L 713.953,282.807"/>
    <path style="fill: #000000" d="M 719.752 269.848 L 723.109,266.718 L 751.459,266.718 L 748.342,269.848 L 719.752,269.848z"/>
    <path style="fill: none; fill-opacity:0; stroke-width: 0.02; stroke: #000000" d="M 719.752 269.848 L 723.109,266.718 L 751.459,266.718 L 748.342,269.848 L 719.752,269.848"/>
    <path style="fill: #c9c9b6" d="M 719.526 246.825 L 722.662,243.922 L 751.024,243.922 L 747.888,246.825 L 719.526,246.825z"/>
    <path style="fill: none; fill-opacity:0; stroke-width: 0.02; stroke: #494936" d="M 719.526 246.825 L 722.662,243.922 L 751.024,243.922 L 747.888,246.825 L 719.526,246.825"/>
    <path style="fill: #b7b79d" d="M 719.526 246.825 L 748.115,246.825 L 748.115,269.394 L 719.526,269.394 L 719.526,246.825z"/>
    <path style="fill: none; fill-opacity:0; stroke-width: 0.02; stroke: #494936" d="M 719.526 246.825 L 748.103,246.825 L 748.103,269.388 L 719.526,269.388 L 719.526,246.825"/>
    <path style="fill: #ffffff" d="M 721.982 249.722 L 745.653,249.722 L 745.653,267.159 L 721.982,267.159 L 721.982,249.722z"/>
    <path style="fill: none; fill-opacity:0; stroke-width: 0.02; stroke: #494936" d="M 721.982 249.722 L 745.653,249.722 L 745.653,267.152 L 721.982,267.152 L 721.982,249.722"/>
    <path style="fill: #7a7a5a" d="M 747.888 269.18 L 751.024,266.05 L 751.024,243.922 L 747.888,246.825 L 747.888,269.18z"/>
    <path style="fill: none; fill-opacity:0; stroke-width: 0.02; stroke: #494936" d="M 747.888 269.18 L 751.024,266.05 L 751.024,243.922 L 747.888,246.825 L 747.888,269.18"/>
  </g>
  <g>
    <path style="fill: #b7b79d" d="M 375.724 119.376 L 375.724,162.284 L 401.085,162.284 L 401.085,119.376 L 375.724,119.376z"/>
    <path style="fill: none; fill-opacity:0; stroke-width: 0.02; stroke: #494936" d="M 375.724 119.376 L 375.724,162.284 L 401.085,162.284 L 401.085,119.376 L 375.724,119.376"/>
    <path style="fill: #c9c9b6" d="M 375.724 119.376 L 379.161,115.924 L 404.514,115.924 L 401.085,119.376 L 375.724,119.376z"/>
    <path style="fill: none; fill-opacity:0; stroke-width: 0.02; stroke: #494936" d="M 375.724 119.376 L 379.161,115.924 L 404.347,115.924"/>
    <path style="fill: none; fill-opacity:0; stroke-width: 0.02; stroke: #494936" d="M 404.347 116.099 L 401.085,119.376 L 375.724,119.376"/>
    <path style="fill: #c9c9b6" d="M 377.287 121.872 L 388.871,121.872 L 388.871,127.501 L 377.287,127.501 L 377.287,121.872z"/>
    <path style="fill: none; fill-opacity:0; stroke-width: 0.02; stroke: #626248" d="M 377.287 121.872 L 388.863,121.872 L 388.863,127.493 L 377.287,127.493 L 377.287,121.872"/>
    <path style="fill: none; fill-opacity:0; stroke-width: 0.6; stroke: #ecece7" d="M 378.85 124.694 L 386.974,124.694"/>
    <path style="fill: #7a7a5a" d="M 401.085 162.284 L 404.514,158.825 L 404.514,115.924 L 401.085,119.376 L 401.085,162.284z"/>
    <path style="fill: none; fill-opacity:0; stroke-width: 0.02; stroke: #494936" d="M 401.085 162.284 L 404.347,158.999"/>
    <path style="fill: none; fill-opacity:0; stroke-width: 0.02; stroke: #494936" d="M 404.347 116.099 L 401.085,119.376 L 401.085,162.284"/>
    <path style="fill: none; fill-opacity:0; stroke-width: 0.6; stroke: #ecece7" d="M 376.043 159.454 L 401.077,159.454"/>
    <path style="fill: none; fill-opacity:0; stroke-width: 0.6; stroke: #000000" d="M 376.043 136.597 L 401.077,136.597"/>
    <path style="fill: none; fill-opacity:0; stroke-width: 0.6; stroke: #494936" d="M 375.724 159.143 L 401.055,159.143"/>
    <path style="fill: none; fill-opacity:0; stroke-width: 0.6; stroke: #000000" d="M 375.724 136.278 L 401.055,136.278"/>
    <path style="fill: none; fill-opacity:0; stroke-width: 0.02; stroke: #ecece7" d="M 377.287 127.197 L 377.287,121.872 L 388.552,121.872"/>
  </g>
  <line style="fill: none; fill-opacity:0; stroke-width: 2; stroke: #000000" x1="388.4" y1="162.284" x2="387.083" y2="194.002"/>
  <line style="fill: none; fill-opacity:0; stroke-width: 2; stroke: #000000" x1="736.84" y1="214.084" x2="736.567" y2="243.907"/>
  <text font-size="12.8" style="fill: #000000;text-anchor:start;font-family:sans-serif;font-style:normal;font-weight:normal" x="365" y="97.8">
    <tspan x="365" y="97.8">server1</tspan>
  </text>
  <text font-size="12.8" style="fill: #000000;text-anchor:start;font-family:sans-serif;font-style:normal;font-weight:normal" x="335.7" y="111.05">
    <tspan x="335.7" y="111.05">192.168.1.200/24</tspan>
  </text>
  <text font-size="12.8" style="fill: #000000;text-anchor:start;font-family:sans-serif;font-style:normal;font-weight:normal" x="715.7" y="298.8">
    <tspan x="715.7" y="298.8">client2</tspan>
  </text>
  <text font-size="12.8" style="fill: #000000;text-anchor:start;font-family:sans-serif;font-style:normal;font-weight:normal" x="687.7" y="313.8">
    <tspan x="687.7" y="313.8">192.168.2.10/24</tspan>
  </text>
  <text font-size="12.8" style="fill: #000000;text-anchor:start;font-family:sans-serif;font-style:normal;font-weight:normal" x="449" y="160">
    <tspan x="449" y="160">abc.com</tspan>
  </text>
  <text font-size="12.8" style="fill: #000000;text-anchor:start;font-family:sans-serif;font-style:normal;font-weight:normal" x="629.7" y="159.8">
    <tspan x="629.7" y="159.8">xyz.net</tspan>
  </text>
</svg>
