<?xml version="1.0" encoding="UTF-8" standalone="no"?>
<!DOCTYPE svg PUBLIC "-//W3C//DTD SVG 1.0//EN" "http://www.w3.org/TR/2001/PR-SVG-20010719/DTD/svg10.dtd">
<svg width="37cm" height="5cm" viewBox="193 158 740 99" xmlns="http://www.w3.org/2000/svg" xmlns:xlink="http://www.w3.org/1999/xlink">
  <g>
    <path style="fill: #0078aa" d="M 410.541 210.122 L 410.502,209.72 L 410.419,209.319 L 410.279,208.924 L 410.082,208.535 L 409.814,208.14 L 409.502,207.757 L 409.126,207.381 L 408.705,207.012 L 408.221,206.648 L 407.685,206.298 L 407.105,205.96 L 406.474,205.616 L 405.792,205.291 L 405.066,204.985 L 404.288,204.692 L 403.472,204.411 L 402.624,204.137 L 401.732,203.889 L 400.808,203.653 L 399.845,203.43 L 398.851,203.226 L 397.825,203.054 L 396.78,202.875 L 395.722,202.735 L 394.632,202.601 L 393.523,202.499 L 392.401,202.403 L 391.266,202.34 L 390.132,202.276 L 388.985,202.257 L 387.837,202.238 L 387.837,202.238 L 386.684,202.257 L 385.537,202.276 L 384.402,202.34 L 383.268,202.403 L 382.146,202.499 L 381.037,202.601 L 379.947,202.735 L 378.882,202.875 L 377.837,203.054 L 376.817,203.226 L 375.823,203.43 L 374.861,203.653 L 373.936,203.889 L 373.044,204.137 L 372.19,204.411 L 371.381,204.692 L 370.603,204.985 L 369.876,205.291 L 369.194,205.616 L 368.563,205.96 L 367.983,206.298 L 367.448,206.648 L 366.964,207.012 L 366.543,207.381 L 366.167,207.757 L 365.855,208.14 L 365.587,208.535 L 365.383,208.924 L 365.236,209.319 L 365.16,209.72 L 365.128,210.122 L 365.128,210.122 L 365.16,210.517 L 365.236,210.919 L 365.383,211.314 L 365.587,211.703 L 365.855,212.098 L 366.167,212.48 L 366.543,212.856 L 366.964,213.226 L 367.448,213.589 L 367.983,213.94 L 368.563,214.29 L 369.194,214.622 L 369.876,214.947 L 370.603,215.253 L 371.381,215.559 L 372.19,215.839 L 373.044,216.101 L 373.936,216.355 L 374.861,216.585 L 375.823,216.808 L 376.817,217.012 L 377.837,217.197 L 378.882,217.363 L 379.947,217.516 L 381.037,217.637 L 382.146,217.751 L 383.268,217.834 L 384.402,217.911 L 385.537,217.962 L 386.684,217.994 L 387.837,218 L 387.837,218 L 388.985,217.994 L 390.132,217.962 L 391.266,217.911 L 392.401,217.834 L 393.523,217.751 L 394.632,217.637 L 395.722,217.516 L 396.78,217.363 L 397.825,217.197 L 398.851,217.012 L 399.845,216.808 L 400.808,216.585 L 401.732,216.355 L 402.624,216.101 L 403.472,215.839 L 404.288,215.559 L 405.066,215.253 L 405.792,214.947 L 406.474,214.622 L 407.105,214.29 L 407.685,213.94 L 408.221,213.589 L 408.705,213.226 L 409.126,212.856 L 409.502,212.48 L 409.814,212.098 L 410.082,211.703 L 410.279,211.314 L 410.419,210.919 L 410.502,210.517 L 410.541,210.122z"/>
    <path style="fill: none; fill-opacity:0; stroke-width: 0.02; stroke: #aae6ff" d="M 410.273 209.995 L 410.241,209.593 L 410.164,209.211 L 410.018,208.815 L 409.82,208.433 L 409.559,208.051 L 409.228,207.675 L 408.883,207.311 L 408.45,206.942 L 407.972,206.585 L 407.443,206.228 L 406.857,205.896 L 406.232,205.565 L 405.556,205.246 L 404.836,204.94 L 404.071,204.647 L 403.255,204.379 L 402.401,204.124 L 401.522,203.863 L 400.604,203.646 L 399.648,203.417 L 398.654,203.219 L 397.647,203.041 L 396.614,202.875 L 395.55,202.735 L 394.472,202.601 L 393.363,202.499 L 392.254,202.403 L 391.126,202.34 L 389.992,202.295 L 388.851,202.257 L 387.71,202.257 L 387.71,202.257 L 386.556,202.257 L 385.422,202.295 L 384.281,202.34 L 383.166,202.403 L 382.05,202.499 L 380.947,202.601 L 379.864,202.735 L 378.8,202.875 L 377.761,203.041 L 376.754,203.219 L 375.759,203.417 L 374.803,203.646 L 373.892,203.863 L 373.006,204.124 L 372.152,204.379 L 371.342,204.647 L 370.584,204.94 L 369.864,205.246 L 369.182,205.565 L 368.544,205.896 L 367.977,206.228 L 367.442,206.585 L 366.964,206.942 L 366.543,207.311 L 366.173,207.675 L 365.855,208.051 L 365.6,208.433 L 365.396,208.815 L 365.249,209.211 L 365.166,209.593 L 365.134,209.995 L 365.134,209.995 L 365.166,210.383 L 365.249,210.785 L 365.396,211.161 L 365.6,211.55 L 365.855,211.939 L 366.173,212.308 L 366.543,212.678 L 366.964,213.048 L 367.442,213.398 L 367.977,213.755 L 368.544,214.093 L 369.182,214.412 L 369.864,214.737 L 370.584,215.049 L 371.342,215.329 L 372.152,215.603 L 373.006,215.865 L 373.892,216.12 L 374.803,216.343 L 375.759,216.559 L 376.754,216.763 L 377.761,216.942 L 378.8,217.101 L 379.864,217.254 L 380.947,217.382 L 382.05,217.484 L 383.166,217.573 L 384.281,217.637 L 385.422,217.694 L 386.556,217.726 L 387.71,217.732 L 387.71,217.732 L 388.851,217.726 L 389.992,217.694 L 391.126,217.637 L 392.254,217.573 L 393.363,217.484 L 394.472,217.382 L 395.55,217.254 L 396.614,217.101 L 397.647,216.942 L 398.654,216.763 L 399.648,216.559 L 400.604,216.343 L 401.522,216.12 L 402.401,215.865 L 403.255,215.603 L 404.071,215.329 L 404.836,215.049 L 405.556,214.737 L 406.232,214.412 L 406.857,214.093 L 407.443,213.755 L 407.972,213.398 L 408.45,213.048 L 408.883,212.678 L 409.228,212.308 L 409.559,211.939 L 409.82,211.55 L 410.018,211.161 L 410.164,210.785 L 410.241,210.383 L 410.273,209.995"/>
    <path style="fill: #0078aa" d="M 365.134 199.204 L 365.134,210.269 L 410.273,210.269 L 410.273,199.204 L 365.134,199.204z"/>
    <path style="fill: #00b4ff" d="M 410.541 199.07 L 410.502,198.669 L 410.419,198.261 L 410.279,197.872 L 410.082,197.477 L 409.814,197.081 L 409.502,196.699 L 409.126,196.323 L 408.705,195.96 L 408.221,195.59 L 407.685,195.246 L 407.105,194.895 L 406.474,194.564 L 405.792,194.232 L 405.066,193.933 L 404.288,193.633 L 403.472,193.346 L 402.624,193.079 L 401.732,192.83 L 400.808,192.594 L 399.845,192.378 L 398.851,192.18 L 397.825,191.989 L 396.78,191.823 L 395.722,191.67 L 394.632,191.543 L 393.523,191.434 L 392.401,191.345 L 391.266,191.275 L 390.132,191.224 L 388.985,191.192 L 387.837,191.186 L 387.837,191.186 L 386.684,191.192 L 385.537,191.224 L 384.402,191.275 L 383.268,191.345 L 382.146,191.434 L 381.037,191.543 L 379.947,191.67 L 378.882,191.823 L 377.837,191.989 L 376.817,192.18 L 375.823,192.378 L 374.861,192.594 L 373.936,192.83 L 373.044,193.079 L 372.19,193.346 L 371.381,193.633 L 370.603,193.933 L 369.876,194.232 L 369.194,194.564 L 368.563,194.895 L 367.983,195.246 L 367.448,195.59 L 366.964,195.96 L 366.543,196.323 L 366.167,196.699 L 365.855,197.081 L 365.587,197.477 L 365.383,197.872 L 365.236,198.261 L 365.16,198.669 L 365.128,199.07 L 365.128,199.07 L 365.16,199.465 L 365.236,199.867 L 365.383,200.262 L 365.587,200.644 L 365.855,201.04 L 366.167,201.422 L 366.543,201.798 L 366.964,202.174 L 367.448,202.537 L 367.983,202.882 L 368.563,203.226 L 369.194,203.57 L 369.876,203.889 L 370.603,204.194 L 371.381,204.494 L 372.19,204.775 L 373.044,205.049 L 373.936,205.291 L 374.861,205.527 L 375.823,205.75 L 376.817,205.96 L 377.837,206.132 L 378.882,206.304 L 379.947,206.457 L 381.037,206.578 L 382.146,206.687 L 383.268,206.776 L 384.402,206.846 L 385.537,206.903 L 386.684,206.935 L 387.837,206.942 L 387.837,206.942 L 388.985,206.935 L 390.132,206.903 L 391.266,206.846 L 392.401,206.776 L 393.523,206.687 L 394.632,206.578 L 395.722,206.457 L 396.78,206.304 L 397.825,206.132 L 398.851,205.96 L 399.845,205.75 L 400.808,205.527 L 401.732,205.291 L 402.624,205.049 L 403.472,204.775 L 404.288,204.494 L 405.066,204.194 L 405.792,203.889 L 406.474,203.57 L 407.105,203.226 L 407.685,202.882 L 408.221,202.537 L 408.705,202.174 L 409.126,201.798 L 409.502,201.422 L 409.814,201.04 L 410.082,200.644 L 410.279,200.262 L 410.419,199.867 L 410.502,199.465 L 410.541,199.07z"/>
    <path style="fill: none; fill-opacity:0; stroke-width: 0.02; stroke: #aae6ff" d="M 410.273 198.936 L 410.241,198.535 L 410.164,198.152 L 410.018,197.763 L 409.82,197.375 L 409.559,196.999 L 409.228,196.61 L 408.883,196.253 L 408.45,195.883 L 407.972,195.533 L 407.443,195.169 L 406.857,194.844 L 406.232,194.506 L 405.556,194.188 L 404.836,193.895 L 404.071,193.589 L 403.255,193.334 L 402.401,193.06 L 401.522,192.811 L 400.604,192.582 L 399.648,192.359 L 398.654,192.161 L 397.647,191.983 L 396.614,191.823 L 395.55,191.67 L 394.472,191.543 L 393.363,191.441 L 392.254,191.345 L 391.126,191.281 L 389.992,191.23 L 388.851,191.199 L 387.71,191.192 L 387.71,191.192 L 386.556,191.199 L 385.422,191.23 L 384.281,191.281 L 383.166,191.345 L 382.05,191.441 L 380.947,191.543 L 379.864,191.67 L 378.8,191.823 L 377.761,191.983 L 376.754,192.161 L 375.759,192.359 L 374.803,192.582 L 373.892,192.811 L 373.006,193.06 L 372.152,193.334 L 371.342,193.589 L 370.584,193.895 L 369.864,194.188 L 369.182,194.506 L 368.544,194.844 L 367.977,195.169 L 367.442,195.533 L 366.964,195.883 L 366.543,196.253 L 366.173,196.61 L 365.855,196.999 L 365.6,197.375 L 365.396,197.763 L 365.249,198.152 L 365.166,198.535 L 365.134,198.936 L 365.134,198.936 L 365.166,199.331 L 365.249,199.72 L 365.396,200.109 L 365.6,200.491 L 365.855,200.874 L 366.173,201.256 L 366.543,201.62 L 366.964,201.989 L 367.442,202.34 L 367.977,202.697 L 368.544,203.034 L 369.182,203.353 L 369.864,203.678 L 370.584,203.984 L 371.342,204.271 L 372.152,204.545 L 373.006,204.806 L 373.892,205.055 L 374.803,205.284 L 375.759,205.507 L 376.754,205.718 L 377.761,205.884 L 378.8,206.056 L 379.864,206.202 L 380.947,206.323 L 382.05,206.438 L 383.166,206.527 L 384.281,206.585 L 385.422,206.642 L 386.556,206.674 L 387.71,206.68 L 387.71,206.68 L 388.851,206.674 L 389.992,206.642 L 391.126,206.585 L 392.254,206.527 L 393.363,206.438 L 394.472,206.323 L 395.55,206.202 L 396.614,206.056 L 397.647,205.884 L 398.654,205.718 L 399.648,205.507 L 400.604,205.284 L 401.522,205.055 L 402.401,204.806 L 403.255,204.545 L 404.071,204.271 L 404.836,203.984 L 405.556,203.678 L 406.232,203.353 L 406.857,203.034 L 407.443,202.697 L 407.972,202.34 L 408.45,201.989 L 408.883,201.62 L 409.228,201.256 L 409.559,200.874 L 409.82,200.491 L 410.018,200.109 L 410.164,199.72 L 410.241,199.331 L 410.273,198.936"/>
    <path style="fill: #000000" d="M 388.258 197.279 L 391.56,198.388 L 399.546,195.061 L 403.122,196.164 L 401.19,193.41 L 391.84,193.41 L 395.683,194.232 L 388.258,197.279z"/>
    <path style="fill: #000000" d="M 386.875 200.319 L 383.58,199.204 L 375.868,202.537 L 372.018,201.422 L 373.936,204.462 L 383.58,204.462 L 379.443,203.353 L 386.875,200.319z"/>
    <path style="fill: #000000" d="M 372.84 194.232 L 376.135,193.13 L 384.128,196.164 L 387.71,195.341 L 385.785,198.095 L 376.416,198.095 L 380.266,197.279 L 372.84,194.232z"/>
    <path style="fill: #000000" d="M 402.567 203.627 L 399.259,204.736 L 391.56,201.422 L 387.71,202.537 L 389.635,199.758 L 399.259,199.758 L 395.135,200.587 L 402.567,203.627z"/>
    <path style="fill: #ffffff" d="M 388.532 197.553 L 391.84,198.656 L 399.807,195.341 L 403.396,196.45 L 401.464,193.678 L 392.108,193.678 L 395.964,194.5 L 388.532,197.553z"/>
    <path style="fill: #ffffff" d="M 387.155 200.587 L 383.841,199.484 L 376.135,202.799 L 372.286,201.696 L 374.211,204.736 L 383.841,204.736 L 379.717,203.627 L 387.155,200.587z"/>
    <path style="fill: #ffffff" d="M 373.114 194.5 L 376.416,193.41 L 384.402,196.45 L 387.978,195.609 L 386.059,198.388 L 376.69,198.388 L 380.552,197.553 L 373.114,194.5z"/>
    <path style="fill: #ffffff" d="M 402.835 203.914 L 399.546,205.017 L 391.84,201.696 L 387.978,202.799 L 389.903,200.045 L 399.546,200.045 L 395.416,200.867 L 402.835,203.914z"/>
    <path style="fill: none; fill-opacity:0; stroke-width: 0.02; stroke: #aae6ff" d="M 365.134 198.936 L 365.134,209.982"/>
    <path style="fill: none; fill-opacity:0; stroke-width: 0.02; stroke: #aae6ff" d="M 410.273 198.936 L 410.273,209.982"/>
  </g>
  <g>
    <path style="fill: #0078aa" d="M 594.387 210.975 L 594.348,210.566 L 594.264,210.157 L 594.121,209.755 L 593.92,209.358 L 593.647,208.956 L 593.329,208.566 L 592.946,208.183 L 592.517,207.807 L 592.024,207.437 L 591.479,207.08 L 590.888,206.736 L 590.245,206.385 L 589.55,206.054 L 588.81,205.742 L 588.018,205.443 L 587.187,205.158 L 586.324,204.879 L 585.415,204.625 L 584.473,204.385 L 583.493,204.158 L 582.48,203.95 L 581.435,203.775 L 580.37,203.593 L 579.292,203.45 L 578.182,203.314 L 577.052,203.21 L 575.91,203.113 L 574.754,203.048 L 573.598,202.983 L 572.43,202.963 L 571.261,202.944 L 571.261,202.944 L 570.086,202.963 L 568.917,202.983 L 567.761,203.048 L 566.606,203.113 L 565.463,203.21 L 564.333,203.314 L 563.223,203.45 L 562.139,203.593 L 561.074,203.775 L 560.035,203.95 L 559.022,204.158 L 558.042,204.385 L 557.101,204.625 L 556.192,204.879 L 555.322,205.158 L 554.497,205.443 L 553.705,205.742 L 552.965,206.054 L 552.27,206.385 L 551.627,206.736 L 551.037,207.08 L 550.491,207.437 L 549.998,207.807 L 549.569,208.183 L 549.186,208.566 L 548.868,208.956 L 548.595,209.358 L 548.388,209.755 L 548.238,210.157 L 548.16,210.566 L 548.128,210.975 L 548.128,210.975 L 548.16,211.378 L 548.238,211.787 L 548.388,212.189 L 548.595,212.585 L 548.868,212.988 L 549.186,213.377 L 549.569,213.76 L 549.998,214.137 L 550.491,214.507 L 551.037,214.864 L 551.627,215.221 L 552.27,215.559 L 552.965,215.89 L 553.705,216.202 L 554.497,216.513 L 555.322,216.799 L 556.192,217.065 L 557.101,217.325 L 558.042,217.559 L 559.022,217.786 L 560.035,217.994 L 561.074,218.182 L 562.139,218.351 L 563.223,218.506 L 564.333,218.63 L 565.463,218.747 L 566.606,218.831 L 567.761,218.909 L 568.917,218.961 L 570.086,218.993 L 571.261,219 L 571.261,219 L 572.43,218.993 L 573.598,218.961 L 574.754,218.909 L 575.91,218.831 L 577.052,218.747 L 578.182,218.63 L 579.292,218.506 L 580.37,218.351 L 581.435,218.182 L 582.48,217.994 L 583.493,217.786 L 584.473,217.559 L 585.415,217.325 L 586.324,217.065 L 587.187,216.799 L 588.018,216.513 L 588.81,216.202 L 589.55,215.89 L 590.245,215.559 L 590.888,215.221 L 591.479,214.864 L 592.024,214.507 L 592.517,214.137 L 592.946,213.76 L 593.329,213.377 L 593.647,212.988 L 593.92,212.585 L 594.121,212.189 L 594.264,211.787 L 594.348,211.378 L 594.387,210.975z"/>
    <path style="fill: none; fill-opacity:0; stroke-width: 0.02; stroke: #aae6ff" d="M 594.115 210.845 L 594.082,210.436 L 594.004,210.047 L 593.855,209.644 L 593.654,209.255 L 593.387,208.865 L 593.05,208.482 L 592.699,208.112 L 592.258,207.735 L 591.771,207.372 L 591.232,207.008 L 590.635,206.671 L 589.998,206.333 L 589.31,206.008 L 588.577,205.697 L 587.797,205.398 L 586.966,205.125 L 586.096,204.866 L 585.2,204.599 L 584.265,204.379 L 583.292,204.145 L 582.279,203.944 L 581.253,203.762 L 580.201,203.593 L 579.117,203.45 L 578.02,203.314 L 576.89,203.21 L 575.76,203.113 L 574.611,203.048 L 573.455,203.002 L 572.293,202.963 L 571.131,202.963 L 571.131,202.963 L 569.956,202.963 L 568.8,203.002 L 567.638,203.048 L 566.502,203.113 L 565.366,203.21 L 564.242,203.314 L 563.139,203.45 L 562.054,203.593 L 560.996,203.762 L 559.97,203.944 L 558.958,204.145 L 557.984,204.379 L 557.055,204.599 L 556.153,204.866 L 555.283,205.125 L 554.458,205.398 L 553.686,205.697 L 552.952,206.008 L 552.257,206.333 L 551.608,206.671 L 551.03,207.008 L 550.485,207.372 L 549.998,207.735 L 549.569,208.112 L 549.193,208.482 L 548.868,208.865 L 548.608,209.255 L 548.401,209.644 L 548.251,210.047 L 548.167,210.436 L 548.134,210.845 L 548.134,210.845 L 548.167,211.241 L 548.251,211.65 L 548.401,212.033 L 548.608,212.429 L 548.868,212.826 L 549.193,213.202 L 549.569,213.579 L 549.998,213.955 L 550.485,214.312 L 551.03,214.676 L 551.608,215.02 L 552.257,215.345 L 552.952,215.676 L 553.686,215.994 L 554.458,216.28 L 555.283,216.559 L 556.153,216.825 L 557.055,217.085 L 557.984,217.312 L 558.958,217.533 L 559.97,217.74 L 560.996,217.922 L 562.054,218.084 L 563.139,218.24 L 564.242,218.37 L 565.366,218.474 L 566.502,218.565 L 567.638,218.63 L 568.8,218.688 L 569.956,218.721 L 571.131,218.727 L 571.131,218.727 L 572.293,218.721 L 573.455,218.688 L 574.611,218.63 L 575.76,218.565 L 576.89,218.474 L 578.02,218.37 L 579.117,218.24 L 580.201,218.084 L 581.253,217.922 L 582.279,217.74 L 583.292,217.533 L 584.265,217.312 L 585.2,217.085 L 586.096,216.825 L 586.966,216.559 L 587.797,216.28 L 588.577,215.994 L 589.31,215.676 L 589.998,215.345 L 590.635,215.02 L 591.232,214.676 L 591.771,214.312 L 592.258,213.955 L 592.699,213.579 L 593.05,213.202 L 593.387,212.826 L 593.654,212.429 L 593.855,212.033 L 594.004,211.65 L 594.082,211.241 L 594.115,210.845"/>
    <path style="fill: #0078aa" d="M 548.134 199.853 L 548.134,211.124 L 594.115,211.124 L 594.115,199.853 L 548.134,199.853z"/>
    <path style="fill: #00b4ff" d="M 594.387 199.717 L 594.348,199.308 L 594.264,198.893 L 594.121,198.496 L 593.92,198.094 L 593.647,197.691 L 593.329,197.302 L 592.946,196.919 L 592.517,196.549 L 592.024,196.172 L 591.479,195.822 L 590.888,195.464 L 590.245,195.127 L 589.55,194.789 L 588.81,194.484 L 588.018,194.179 L 587.187,193.887 L 586.324,193.614 L 585.415,193.361 L 584.473,193.121 L 583.493,192.9 L 582.48,192.699 L 581.435,192.504 L 580.37,192.335 L 579.292,192.179 L 578.182,192.049 L 577.052,191.939 L 575.91,191.848 L 574.754,191.777 L 573.598,191.725 L 572.43,191.692 L 571.261,191.686 L 571.261,191.686 L 570.086,191.692 L 568.917,191.725 L 567.761,191.777 L 566.606,191.848 L 565.463,191.939 L 564.333,192.049 L 563.223,192.179 L 562.139,192.335 L 561.074,192.504 L 560.035,192.699 L 559.022,192.9 L 558.042,193.121 L 557.101,193.361 L 556.192,193.614 L 555.322,193.887 L 554.497,194.179 L 553.705,194.484 L 552.965,194.789 L 552.27,195.127 L 551.627,195.464 L 551.037,195.822 L 550.491,196.172 L 549.998,196.549 L 549.569,196.919 L 549.186,197.302 L 548.868,197.691 L 548.595,198.094 L 548.388,198.496 L 548.238,198.893 L 548.16,199.308 L 548.128,199.717 L 548.128,199.717 L 548.16,200.12 L 548.238,200.529 L 548.388,200.931 L 548.595,201.321 L 548.868,201.723 L 549.186,202.113 L 549.569,202.496 L 549.998,202.879 L 550.491,203.249 L 551.037,203.6 L 551.627,203.95 L 552.27,204.301 L 552.965,204.625 L 553.705,204.937 L 554.497,205.242 L 555.322,205.528 L 556.192,205.807 L 557.101,206.054 L 558.042,206.294 L 559.022,206.521 L 560.035,206.736 L 561.074,206.911 L 562.139,207.086 L 563.223,207.242 L 564.333,207.365 L 565.463,207.476 L 566.606,207.567 L 567.761,207.638 L 568.917,207.696 L 570.086,207.729 L 571.261,207.735 L 571.261,207.735 L 572.43,207.729 L 573.598,207.696 L 574.754,207.638 L 575.91,207.567 L 577.052,207.476 L 578.182,207.365 L 579.292,207.242 L 580.37,207.086 L 581.435,206.911 L 582.48,206.736 L 583.493,206.521 L 584.473,206.294 L 585.415,206.054 L 586.324,205.807 L 587.187,205.528 L 588.018,205.242 L 588.81,204.937 L 589.55,204.625 L 590.245,204.301 L 590.888,203.95 L 591.479,203.6 L 592.024,203.249 L 592.517,202.879 L 592.946,202.496 L 593.329,202.113 L 593.647,201.723 L 593.92,201.321 L 594.121,200.931 L 594.264,200.529 L 594.348,200.12 L 594.387,199.717z"/>
    <path style="fill: none; fill-opacity:0; stroke-width: 0.02; stroke: #aae6ff" d="M 594.115 199.581 L 594.082,199.172 L 594.004,198.782 L 593.855,198.386 L 593.654,197.99 L 593.387,197.607 L 593.05,197.211 L 592.699,196.847 L 592.258,196.471 L 591.771,196.114 L 591.232,195.744 L 590.635,195.413 L 589.998,195.068 L 589.31,194.744 L 588.577,194.445 L 587.797,194.133 L 586.966,193.874 L 586.096,193.595 L 585.2,193.341 L 584.265,193.108 L 583.292,192.88 L 582.279,192.679 L 581.253,192.497 L 580.201,192.335 L 579.117,192.179 L 578.02,192.049 L 576.89,191.946 L 575.76,191.848 L 574.611,191.783 L 573.455,191.731 L 572.293,191.699 L 571.131,191.692 L 571.131,191.692 L 569.956,191.699 L 568.8,191.731 L 567.638,191.783 L 566.502,191.848 L 565.366,191.946 L 564.242,192.049 L 563.139,192.179 L 562.054,192.335 L 560.996,192.497 L 559.97,192.679 L 558.958,192.88 L 557.984,193.108 L 557.055,193.341 L 556.153,193.595 L 555.283,193.874 L 554.458,194.133 L 553.686,194.445 L 552.952,194.744 L 552.257,195.068 L 551.608,195.413 L 551.03,195.744 L 550.485,196.114 L 549.998,196.471 L 549.569,196.847 L 549.193,197.211 L 548.868,197.607 L 548.608,197.99 L 548.401,198.386 L 548.251,198.782 L 548.167,199.172 L 548.134,199.581 L 548.134,199.581 L 548.167,199.983 L 548.251,200.379 L 548.401,200.775 L 548.608,201.165 L 548.868,201.554 L 549.193,201.944 L 549.569,202.314 L 549.998,202.691 L 550.485,203.048 L 551.03,203.411 L 551.608,203.755 L 552.257,204.08 L 552.952,204.411 L 553.686,204.723 L 554.458,205.015 L 555.283,205.294 L 556.153,205.56 L 557.055,205.814 L 557.984,206.047 L 558.958,206.275 L 559.97,206.489 L 560.996,206.658 L 562.054,206.833 L 563.139,206.982 L 564.242,207.106 L 565.366,207.222 L 566.502,207.313 L 567.638,207.372 L 568.8,207.43 L 569.956,207.463 L 571.131,207.469 L 571.131,207.469 L 572.293,207.463 L 573.455,207.43 L 574.611,207.372 L 575.76,207.313 L 576.89,207.222 L 578.02,207.106 L 579.117,206.982 L 580.201,206.833 L 581.253,206.658 L 582.279,206.489 L 583.292,206.275 L 584.265,206.047 L 585.2,205.814 L 586.096,205.56 L 586.966,205.294 L 587.797,205.015 L 588.577,204.723 L 589.31,204.411 L 589.998,204.08 L 590.635,203.755 L 591.232,203.411 L 591.771,203.048 L 592.258,202.691 L 592.699,202.314 L 593.05,201.944 L 593.387,201.554 L 593.654,201.165 L 593.855,200.775 L 594.004,200.379 L 594.082,199.983 L 594.115,199.581"/>
    <path style="fill: #000000" d="M 571.689 197.893 L 575.053,199.022 L 583.188,195.633 L 586.83,196.756 L 584.863,193.952 L 575.338,193.952 L 579.253,194.789 L 571.689,197.893z"/>
    <path style="fill: #000000" d="M 570.281 200.99 L 566.924,199.853 L 559.068,203.249 L 555.146,202.113 L 557.101,205.21 L 566.924,205.21 L 562.71,204.08 L 570.281,200.99z"/>
    <path style="fill: #000000" d="M 555.984 194.789 L 559.341,193.666 L 567.482,196.756 L 571.131,195.919 L 569.17,198.724 L 559.626,198.724 L 563.548,197.893 L 555.984,194.789z"/>
    <path style="fill: #000000" d="M 586.265 204.359 L 582.896,205.489 L 575.053,202.113 L 571.131,203.249 L 573.092,200.418 L 582.896,200.418 L 578.695,201.262 L 586.265,204.359z"/>
    <path style="fill: #ffffff" d="M 571.969 198.172 L 575.338,199.295 L 583.454,195.919 L 587.109,197.049 L 585.142,194.224 L 575.611,194.224 L 579.539,195.062 L 571.969,198.172z"/>
    <path style="fill: #ffffff" d="M 570.566 201.262 L 567.19,200.139 L 559.341,203.515 L 555.419,202.392 L 557.38,205.489 L 567.19,205.489 L 562.989,204.359 L 570.566,201.262z"/>
    <path style="fill: #ffffff" d="M 556.263 195.062 L 559.626,193.952 L 567.761,197.049 L 571.404,196.192 L 569.449,199.022 L 559.905,199.022 L 563.84,198.172 L 556.263,195.062z"/>
    <path style="fill: #ffffff" d="M 586.538 204.651 L 583.188,205.775 L 575.338,202.392 L 571.404,203.515 L 573.364,200.71 L 583.188,200.71 L 578.981,201.548 L 586.538,204.651z"/>
    <path style="fill: none; fill-opacity:0; stroke-width: 0.02; stroke: #aae6ff" d="M 548.134 199.581 L 548.134,210.832"/>
    <path style="fill: none; fill-opacity:0; stroke-width: 0.02; stroke: #aae6ff" d="M 594.115 199.581 L 594.115,210.832"/>
  </g>
  <g>
    <path style="fill: #b7b79d" d="M 220.896 207.814 L 260.865,207.814 L 260.865,215.2 L 220.896,215.2 L 220.896,207.814z"/>
    <path style="fill: none; fill-opacity:0; stroke-width: 0.02; stroke: #494936" d="M 220.896 207.814 L 260.865,207.814 L 260.865,215.2 L 220.896,215.2 L 220.896,207.814"/>
    <path style="fill: #c9c9b6" d="M 220.896 207.814 L 225.134,203.796 L 265.103,203.796 L 260.865,207.814 L 220.896,207.814z"/>
    <path style="fill: none; fill-opacity:0; stroke-width: 0.02; stroke: #494936" d="M 220.896 207.814 L 225.134,203.796 L 265.103,203.796 L 260.865,207.814 L 220.896,207.814"/>
    <path style="fill: none; fill-opacity:0; stroke-width: 2.12; stroke: #000000" d="M 258.629 211.176 L 249.038,211.176"/>
    <path style="fill: #7a7a5a" d="M 260.865 215.2 L 265.103,210.95 L 265.103,203.796 L 260.865,207.814 L 260.865,215.2z"/>
    <path style="fill: none; fill-opacity:0; stroke-width: 0.02; stroke: #494936" d="M 260.865 215.2 L 265.103,210.95 L 265.103,203.796 L 260.865,207.814 L 260.865,215.2"/>
    <path style="fill: #c9c9b6" d="M 221.123 219.885 L 225.581,214.3 L 256.4,214.3 L 251.941,219.885 L 221.123,219.885z"/>
    <path style="fill: none; fill-opacity:0; stroke-width: 0.02; stroke: #494936" d="M 221.123 219.885 L 225.581,214.3 L 256.4,214.3 L 251.941,219.885 L 221.123,219.885"/>
    <path style="fill: #7a7a5a" d="M 251.941 221 L 256.4,216.315 L 256.4,214.3 L 251.941,219.885 L 251.941,221z"/>
    <path style="fill: none; fill-opacity:0; stroke-width: 0.02; stroke: #494936" d="M 251.941 221 L 256.4,216.315 L 256.4,214.3 L 251.941,219.885 L 251.941,221"/>
    <path style="fill: #b7b79d" d="M 221.123 219.885 L 251.941,219.885 L 251.941,221 L 221.123,221 L 221.123,219.885z"/>
    <path style="fill: none; fill-opacity:0; stroke-width: 0.02; stroke: #494936" d="M 221.123 219.885 L 251.941,219.885 L 251.941,221 L 221.123,221 L 221.123,219.885"/>
    <path style="fill: #000000" d="M 226.922 206.926 L 230.279,203.796 L 258.629,203.796 L 255.512,206.926 L 226.922,206.926z"/>
    <path style="fill: none; fill-opacity:0; stroke-width: 0.02; stroke: #000000" d="M 226.922 206.926 L 230.279,203.796 L 258.629,203.796 L 255.512,206.926 L 226.922,206.926"/>
    <path style="fill: #c9c9b6" d="M 226.696 183.903 L 229.832,181 L 258.194,181 L 255.058,183.903 L 226.696,183.903z"/>
    <path style="fill: none; fill-opacity:0; stroke-width: 0.02; stroke: #494936" d="M 226.696 183.903 L 229.832,181 L 258.194,181 L 255.058,183.903 L 226.696,183.903"/>
    <path style="fill: #b7b79d" d="M 226.696 183.903 L 255.285,183.903 L 255.285,206.472 L 226.696,206.472 L 226.696,183.903z"/>
    <path style="fill: none; fill-opacity:0; stroke-width: 0.02; stroke: #494936" d="M 226.696 183.903 L 255.273,183.903 L 255.273,206.466 L 226.696,206.466 L 226.696,183.903"/>
    <path style="fill: #ffffff" d="M 229.152 186.8 L 252.823,186.8 L 252.823,204.237 L 229.152,204.237 L 229.152,186.8z"/>
    <path style="fill: none; fill-opacity:0; stroke-width: 0.02; stroke: #494936" d="M 229.152 186.8 L 252.823,186.8 L 252.823,204.23 L 229.152,204.23 L 229.152,186.8"/>
    <path style="fill: #7a7a5a" d="M 255.058 206.258 L 258.194,203.128 L 258.194,181 L 255.058,183.903 L 255.058,206.258z"/>
    <path style="fill: none; fill-opacity:0; stroke-width: 0.02; stroke: #494936" d="M 255.058 206.258 L 258.194,203.128 L 258.194,181 L 255.058,183.903 L 255.058,206.258"/>
  </g>
  <g>
    <path style="fill: #b7b79d" d="M 863.58 184.364 L 863.58,227.272 L 888.941,227.272 L 888.941,184.364 L 863.58,184.364z"/>
    <path style="fill: none; fill-opacity:0; stroke-width: 0.02; stroke: #494936" d="M 863.58 184.364 L 863.58,227.272 L 888.941,227.272 L 888.941,184.364 L 863.58,184.364"/>
    <path style="fill: #c9c9b6" d="M 863.58 184.364 L 867.017,180.912 L 892.37,180.912 L 888.941,184.364 L 863.58,184.364z"/>
    <path style="fill: none; fill-opacity:0; stroke-width: 0.02; stroke: #494936" d="M 863.58 184.364 L 867.017,180.912 L 892.203,180.912"/>
    <path style="fill: none; fill-opacity:0; stroke-width: 0.02; stroke: #494936" d="M 892.203 181.087 L 888.941,184.364 L 863.58,184.364"/>
    <path style="fill: #c9c9b6" d="M 865.143 186.86 L 876.727,186.86 L 876.727,192.489 L 865.143,192.489 L 865.143,186.86z"/>
    <path style="fill: none; fill-opacity:0; stroke-width: 0.02; stroke: #626248" d="M 865.143 186.86 L 876.719,186.86 L 876.719,192.481 L 865.143,192.481 L 865.143,186.86"/>
    <path style="fill: none; fill-opacity:0; stroke-width: 0.6; stroke: #ecece7" d="M 866.706 189.682 L 874.83,189.682"/>
    <path style="fill: #7a7a5a" d="M 888.941 227.272 L 892.37,223.813 L 892.37,180.912 L 888.941,184.364 L 888.941,227.272z"/>
    <path style="fill: none; fill-opacity:0; stroke-width: 0.02; stroke: #494936" d="M 888.941 227.272 L 892.203,223.987"/>
    <path style="fill: none; fill-opacity:0; stroke-width: 0.02; stroke: #494936" d="M 892.203 181.087 L 888.941,184.364 L 888.941,227.272"/>
    <path style="fill: none; fill-opacity:0; stroke-width: 0.6; stroke: #ecece7" d="M 863.899 224.442 L 888.933,224.442"/>
    <path style="fill: none; fill-opacity:0; stroke-width: 0.6; stroke: #000000" d="M 863.899 201.585 L 888.933,201.585"/>
    <path style="fill: none; fill-opacity:0; stroke-width: 0.6; stroke: #494936" d="M 863.58 224.131 L 888.911,224.131"/>
    <path style="fill: none; fill-opacity:0; stroke-width: 0.6; stroke: #000000" d="M 863.58 201.266 L 888.911,201.266"/>
    <path style="fill: none; fill-opacity:0; stroke-width: 0.02; stroke: #ecece7" d="M 865.143 192.185 L 865.143,186.86 L 876.408,186.86"/>
  </g>
  <line style="fill: none; fill-opacity:0; stroke-width: 2; stroke: #000000" x1="265.1" y1="204.577" x2="365.126" y2="204.578"/>
  <line style="fill: none; fill-opacity:0; stroke-width: 2; stroke: #000000" x1="410.286" y1="204.67" x2="548.128" y2="205.234"/>
  <text font-size="12.8" style="fill: #000000;text-anchor:start;font-family:sans-serif;font-style:normal;font-weight:normal" x="382" y="232">
    <tspan x="382" y="232">R1</tspan>
  </text>
  <text font-size="12.8" style="fill: #000000;text-anchor:start;font-family:sans-serif;font-style:normal;font-weight:normal" x="565" y="234">
    <tspan x="565" y="234">R2</tspan>
  </text>
  <text font-size="12.8" style="fill: #000000;text-anchor:start;font-family:sans-serif;font-style:normal;font-weight:normal" x="223" y="238">
    <tspan x="223" y="238">Client</tspan>
  </text>
  <text font-size="12.8" style="fill: #000000;text-anchor:start;font-family:sans-serif;font-style:normal;font-weight:normal" x="856" y="240">
    <tspan x="856" y="240">Server</tspan>
  </text>
  <text font-size="12.8" style="fill: #000000;text-anchor:start;font-family:sans-serif;font-style:normal;font-weight:normal" x="193" y="253">
    <tspan x="193" y="253">192.168.1.10/24</tspan>
  </text>
  <text font-size="12.8" style="fill: #000000;text-anchor:start;font-family:sans-serif;font-style:normal;font-weight:normal" x="829.7" y="253.25">
    <tspan x="829.7" y="253.25">192.168.2.10/24</tspan>
  </text>
  <text font-size="12.8" style="fill: #000000;text-anchor:start;font-family:sans-serif;font-style:normal;font-weight:normal" x="335" y="199">
    <tspan x="335" y="199">eth0</tspan>
  </text>
  <text font-size="12.8" style="fill: #000000;text-anchor:start;font-family:sans-serif;font-style:normal;font-weight:normal" x="518.7" y="199.8">
    <tspan x="518.7" y="199.8">eth0</tspan>
  </text>
  <text font-size="12.8" style="fill: #000000;text-anchor:start;font-family:sans-serif;font-style:normal;font-weight:normal" x="411.4" y="216.7">
    <tspan x="411.4" y="216.7">eth1</tspan>
  </text>
  <text font-size="12.8" style="fill: #000000;text-anchor:start;font-family:sans-serif;font-style:normal;font-weight:normal" x="595.7" y="217.8">
    <tspan x="595.7" y="217.8">eth1</tspan>
  </text>
  <text font-size="12.8" style="fill: #000000;text-anchor:start;font-family:sans-serif;font-style:normal;font-weight:normal" x="269" y="183.927">
    <tspan x="269" y="183.927">192.168.1.1/24</tspan>
  </text>
  <text font-size="12.8" style="fill: #000000;text-anchor:start;font-family:sans-serif;font-style:normal;font-weight:normal" x="467.7" y="186.177">
    <tspan x="467.7" y="186.177">200.1.1.2/24</tspan>
  </text>
  <text font-size="12.8" style="fill: #000000;text-anchor:start;font-family:sans-serif;font-style:normal;font-weight:normal" x="409.7" y="228.178">
    <tspan x="409.7" y="228.178">200.1.1.1/24</tspan>
  </text>
  <text font-size="12.8" style="fill: #000000;text-anchor:start;font-family:sans-serif;font-style:normal;font-weight:normal" x="594.7" y="230.178">
    <tspan x="594.7" y="230.178">200.2.2.1/24</tspan>
  </text>
  <g>
    <path style="fill: #0078aa" d="M 761.775 209.735 L 761.734,209.313 L 761.647,208.892 L 761.5,208.477 L 761.293,208.069 L 761.012,207.655 L 760.685,207.254 L 760.29,206.859 L 759.849,206.471 L 759.34,206.09 L 758.779,205.722 L 758.17,205.368 L 757.508,205.007 L 756.793,204.666 L 756.03,204.345 L 755.214,204.037 L 754.358,203.743 L 753.469,203.455 L 752.533,203.194 L 751.563,202.947 L 750.553,202.713 L 749.51,202.499 L 748.434,202.318 L 747.337,202.131 L 746.227,201.984 L 745.083,201.844 L 743.92,201.737 L 742.743,201.636 L 741.552,201.569 L 740.362,201.503 L 739.158,201.483 L 737.955,201.462 L 737.955,201.462 L 736.744,201.483 L 735.541,201.503 L 734.35,201.569 L 733.16,201.636 L 731.983,201.737 L 730.819,201.844 L 729.676,201.984 L 728.559,202.131 L 727.462,202.318 L 726.392,202.499 L 725.349,202.713 L 724.339,202.947 L 723.37,203.194 L 722.434,203.455 L 721.537,203.743 L 720.688,204.037 L 719.872,204.345 L 719.11,204.666 L 718.394,205.007 L 717.732,205.368 L 717.124,205.722 L 716.562,206.09 L 716.054,206.471 L 715.613,206.859 L 715.218,207.254 L 714.89,207.655 L 714.609,208.069 L 714.395,208.477 L 714.242,208.892 L 714.161,209.313 L 714.128,209.735 L 714.128,209.735 L 714.161,210.149 L 714.242,210.57 L 714.395,210.985 L 714.609,211.393 L 714.89,211.808 L 715.218,212.209 L 715.613,212.603 L 716.054,212.991 L 716.562,213.372 L 717.124,213.74 L 717.732,214.108 L 718.394,214.456 L 719.11,214.797 L 719.872,215.118 L 720.688,215.439 L 721.537,215.733 L 722.434,216.007 L 723.37,216.275 L 724.339,216.515 L 725.349,216.749 L 726.392,216.963 L 727.462,217.157 L 728.559,217.331 L 729.676,217.492 L 730.819,217.619 L 731.983,217.739 L 733.16,217.826 L 734.35,217.906 L 735.541,217.96 L 736.744,217.993 L 737.955,218 L 737.955,218 L 739.158,217.993 L 740.362,217.96 L 741.552,217.906 L 742.743,217.826 L 743.92,217.739 L 745.083,217.619 L 746.227,217.492 L 747.337,217.331 L 748.434,217.157 L 749.51,216.963 L 750.553,216.749 L 751.563,216.515 L 752.533,216.275 L 753.469,216.007 L 754.358,215.733 L 755.214,215.439 L 756.03,215.118 L 756.793,214.797 L 757.508,214.456 L 758.17,214.108 L 758.779,213.74 L 759.34,213.372 L 759.849,212.991 L 760.29,212.603 L 760.685,212.209 L 761.012,211.808 L 761.293,211.393 L 761.5,210.985 L 761.647,210.57 L 761.734,210.149 L 761.775,209.735z"/>
    <path style="fill: none; fill-opacity:0; stroke-width: 0.02; stroke: #aae6ff" d="M 761.494 209.601 L 761.46,209.18 L 761.38,208.778 L 761.226,208.364 L 761.019,207.962 L 760.745,207.561 L 760.397,207.167 L 760.036,206.786 L 759.581,206.398 L 759.08,206.023 L 758.525,205.649 L 757.909,205.301 L 757.254,204.953 L 756.545,204.619 L 755.789,204.298 L 754.987,203.99 L 754.131,203.709 L 753.235,203.442 L 752.312,203.168 L 751.349,202.94 L 750.346,202.7 L 749.303,202.492 L 748.246,202.305 L 747.163,202.131 L 746.046,201.984 L 744.916,201.844 L 743.752,201.737 L 742.589,201.636 L 741.405,201.569 L 740.215,201.523 L 739.018,201.483 L 737.821,201.483 L 737.821,201.483 L 736.61,201.483 L 735.42,201.523 L 734.223,201.569 L 733.053,201.636 L 731.883,201.737 L 730.726,201.844 L 729.589,201.984 L 728.472,202.131 L 727.382,202.305 L 726.326,202.492 L 725.282,202.7 L 724.279,202.94 L 723.323,203.168 L 722.393,203.442 L 721.497,203.709 L 720.648,203.99 L 719.852,204.298 L 719.097,204.619 L 718.381,204.953 L 717.712,205.301 L 717.117,205.649 L 716.555,206.023 L 716.054,206.398 L 715.613,206.786 L 715.225,207.167 L 714.89,207.561 L 714.623,207.962 L 714.409,208.364 L 714.255,208.778 L 714.168,209.18 L 714.135,209.601 L 714.135,209.601 L 714.168,210.009 L 714.255,210.43 L 714.409,210.825 L 714.623,211.233 L 714.89,211.64 L 715.225,212.028 L 715.613,212.416 L 716.054,212.804 L 716.555,213.172 L 717.117,213.546 L 717.712,213.901 L 718.381,214.235 L 719.097,214.576 L 719.852,214.904 L 720.648,215.198 L 721.497,215.486 L 722.393,215.76 L 723.323,216.027 L 724.279,216.261 L 725.282,216.489 L 726.326,216.703 L 727.382,216.89 L 728.472,217.057 L 729.589,217.218 L 730.726,217.351 L 731.883,217.458 L 733.053,217.552 L 734.223,217.619 L 735.42,217.679 L 736.61,217.712 L 737.821,217.719 L 737.821,217.719 L 739.018,217.712 L 740.215,217.679 L 741.405,217.619 L 742.589,217.552 L 743.752,217.458 L 744.916,217.351 L 746.046,217.218 L 747.163,217.057 L 748.246,216.89 L 749.303,216.703 L 750.346,216.489 L 751.349,216.261 L 752.312,216.027 L 753.235,215.76 L 754.131,215.486 L 754.987,215.198 L 755.789,214.904 L 756.545,214.576 L 757.254,214.235 L 757.909,213.901 L 758.525,213.546 L 759.08,213.172 L 759.581,212.804 L 760.036,212.416 L 760.397,212.028 L 760.745,211.64 L 761.019,211.233 L 761.226,210.825 L 761.38,210.43 L 761.46,210.009 L 761.494,209.601"/>
    <path style="fill: #0078aa" d="M 714.135 198.279 L 714.135,209.888 L 761.494,209.888 L 761.494,198.279 L 714.135,198.279z"/>
    <path style="fill: #00b4ff" d="M 761.775 198.139 L 761.734,197.718 L 761.647,197.29 L 761.5,196.882 L 761.293,196.467 L 761.012,196.052 L 760.685,195.651 L 760.29,195.257 L 759.849,194.876 L 759.34,194.488 L 758.779,194.127 L 758.17,193.759 L 757.508,193.411 L 756.793,193.063 L 756.03,192.749 L 755.214,192.435 L 754.358,192.134 L 753.469,191.853 L 752.533,191.592 L 751.563,191.345 L 750.553,191.117 L 749.51,190.91 L 748.434,190.709 L 747.337,190.536 L 746.227,190.375 L 745.083,190.241 L 743.92,190.128 L 742.743,190.034 L 741.552,189.96 L 740.362,189.907 L 739.158,189.873 L 737.955,189.867 L 737.955,189.867 L 736.744,189.873 L 735.541,189.907 L 734.35,189.96 L 733.16,190.034 L 731.983,190.128 L 730.819,190.241 L 729.676,190.375 L 728.559,190.536 L 727.462,190.709 L 726.392,190.91 L 725.349,191.117 L 724.339,191.345 L 723.37,191.592 L 722.434,191.853 L 721.537,192.134 L 720.688,192.435 L 719.872,192.749 L 719.11,193.063 L 718.394,193.411 L 717.732,193.759 L 717.124,194.127 L 716.562,194.488 L 716.054,194.876 L 715.613,195.257 L 715.218,195.651 L 714.89,196.052 L 714.609,196.467 L 714.395,196.882 L 714.242,197.29 L 714.161,197.718 L 714.128,198.139 L 714.128,198.139 L 714.161,198.554 L 714.242,198.975 L 714.395,199.389 L 714.609,199.791 L 714.89,200.205 L 715.218,200.606 L 715.613,201.001 L 716.054,201.396 L 716.562,201.777 L 717.124,202.138 L 717.732,202.499 L 718.394,202.86 L 719.11,203.194 L 719.872,203.515 L 720.688,203.83 L 721.537,204.124 L 722.434,204.412 L 723.37,204.666 L 724.339,204.913 L 725.349,205.147 L 726.392,205.368 L 727.462,205.548 L 728.559,205.729 L 729.676,205.889 L 730.819,206.016 L 731.983,206.13 L 733.16,206.224 L 734.35,206.297 L 735.541,206.358 L 736.744,206.391 L 737.955,206.398 L 737.955,206.398 L 739.158,206.391 L 740.362,206.358 L 741.552,206.297 L 742.743,206.224 L 743.92,206.13 L 745.083,206.016 L 746.227,205.889 L 747.337,205.729 L 748.434,205.548 L 749.51,205.368 L 750.553,205.147 L 751.563,204.913 L 752.533,204.666 L 753.469,204.412 L 754.358,204.124 L 755.214,203.83 L 756.03,203.515 L 756.793,203.194 L 757.508,202.86 L 758.17,202.499 L 758.779,202.138 L 759.34,201.777 L 759.849,201.396 L 760.29,201.001 L 760.685,200.606 L 761.012,200.205 L 761.293,199.791 L 761.5,199.389 L 761.647,198.975 L 761.734,198.554 L 761.775,198.139z"/>
    <path style="fill: none; fill-opacity:0; stroke-width: 0.02; stroke: #aae6ff" d="M 761.494 197.998 L 761.46,197.577 L 761.38,197.176 L 761.226,196.768 L 761.019,196.36 L 760.745,195.966 L 760.397,195.558 L 760.036,195.183 L 759.581,194.795 L 759.08,194.427 L 758.525,194.046 L 757.909,193.705 L 757.254,193.351 L 756.545,193.016 L 755.789,192.709 L 754.987,192.388 L 754.131,192.12 L 753.235,191.833 L 752.312,191.572 L 751.349,191.331 L 750.346,191.097 L 749.303,190.89 L 748.246,190.703 L 747.163,190.536 L 746.046,190.375 L 744.916,190.241 L 743.752,190.134 L 742.589,190.034 L 741.405,189.967 L 740.215,189.914 L 739.018,189.88 L 737.821,189.873 L 737.821,189.873 L 736.61,189.88 L 735.42,189.914 L 734.223,189.967 L 733.053,190.034 L 731.883,190.134 L 730.726,190.241 L 729.589,190.375 L 728.472,190.536 L 727.382,190.703 L 726.326,190.89 L 725.282,191.097 L 724.279,191.331 L 723.323,191.572 L 722.393,191.833 L 721.497,192.12 L 720.648,192.388 L 719.852,192.709 L 719.097,193.016 L 718.381,193.351 L 717.712,193.705 L 717.117,194.046 L 716.555,194.427 L 716.054,194.795 L 715.613,195.183 L 715.225,195.558 L 714.89,195.966 L 714.623,196.36 L 714.409,196.768 L 714.255,197.176 L 714.168,197.577 L 714.135,197.998 L 714.135,197.998 L 714.168,198.413 L 714.255,198.821 L 714.409,199.229 L 714.623,199.63 L 714.89,200.031 L 715.225,200.433 L 715.613,200.814 L 716.054,201.202 L 716.555,201.569 L 717.117,201.944 L 717.712,202.298 L 718.381,202.633 L 719.097,202.974 L 719.852,203.295 L 720.648,203.596 L 721.497,203.883 L 722.393,204.157 L 723.323,204.418 L 724.279,204.659 L 725.282,204.893 L 726.326,205.114 L 727.382,205.288 L 728.472,205.468 L 729.589,205.622 L 730.726,205.749 L 731.883,205.869 L 733.053,205.963 L 734.223,206.023 L 735.42,206.083 L 736.61,206.117 L 737.821,206.123 L 737.821,206.123 L 739.018,206.117 L 740.215,206.083 L 741.405,206.023 L 742.589,205.963 L 743.752,205.869 L 744.916,205.749 L 746.046,205.622 L 747.163,205.468 L 748.246,205.288 L 749.303,205.114 L 750.346,204.893 L 751.349,204.659 L 752.312,204.418 L 753.235,204.157 L 754.131,203.883 L 754.987,203.596 L 755.789,203.295 L 756.545,202.974 L 757.254,202.633 L 757.909,202.298 L 758.525,201.944 L 759.08,201.569 L 759.581,201.202 L 760.036,200.814 L 760.397,200.433 L 760.745,200.031 L 761.019,199.63 L 761.226,199.229 L 761.38,198.821 L 761.46,198.413 L 761.494,197.998"/>
    <path style="fill: #000000" d="M 738.396 196.26 L 741.86,197.423 L 750.239,193.933 L 753.991,195.09 L 751.964,192.201 L 742.154,192.201 L 746.187,193.063 L 738.396,196.26z"/>
    <path style="fill: #000000" d="M 736.945 199.45 L 733.488,198.279 L 725.396,201.777 L 721.357,200.606 L 723.37,203.796 L 733.488,203.796 L 729.148,202.633 L 736.945,199.45z"/>
    <path style="fill: #000000" d="M 722.22 193.063 L 725.677,191.906 L 734.063,195.09 L 737.821,194.227 L 735.801,197.116 L 725.971,197.116 L 730.01,196.26 L 722.22,193.063z"/>
    <path style="fill: #000000" d="M 753.409 202.92 L 749.938,204.084 L 741.86,200.606 L 737.821,201.777 L 739.84,198.861 L 749.938,198.861 L 745.611,199.73 L 753.409,202.92z"/>
    <path style="fill: #ffffff" d="M 738.684 196.547 L 742.154,197.704 L 750.513,194.227 L 754.278,195.39 L 752.252,192.482 L 742.435,192.482 L 746.481,193.344 L 738.684,196.547z"/>
    <path style="fill: #ffffff" d="M 737.239 199.73 L 733.762,198.574 L 725.677,202.051 L 721.638,200.894 L 723.657,204.084 L 733.762,204.084 L 729.435,202.92 L 737.239,199.73z"/>
    <path style="fill: #ffffff" d="M 722.507 193.344 L 725.971,192.201 L 734.35,195.39 L 738.102,194.508 L 736.089,197.423 L 726.259,197.423 L 730.311,196.547 L 722.507,193.344z"/>
    <path style="fill: #ffffff" d="M 753.69 203.221 L 750.239,204.378 L 742.154,200.894 L 738.102,202.051 L 740.121,199.162 L 750.239,199.162 L 745.906,200.025 L 753.69,203.221z"/>
    <path style="fill: none; fill-opacity:0; stroke-width: 0.02; stroke: #aae6ff" d="M 714.135 197.998 L 714.135,209.587"/>
    <path style="fill: none; fill-opacity:0; stroke-width: 0.02; stroke: #aae6ff" d="M 761.494 197.998 L 761.494,209.587"/>
  </g>
  <line style="fill: none; fill-opacity:0; stroke-width: 2; stroke: #000000" x1="594.128" y1="205.135" x2="714.122" y2="204.12"/>
  <line style="fill: none; fill-opacity:0; stroke-width: 2; stroke: #000000" x1="761.504" y1="203.952" x2="863.574" y2="204.097"/>
  <text font-size="12.8" style="fill: #000000;text-anchor:start;font-family:sans-serif;font-style:normal;font-weight:normal" x="731.7" y="230.8">
    <tspan x="731.7" y="230.8">R3</tspan>
  </text>
  <text font-size="12.8" style="fill: #000000;text-anchor:start;font-family:sans-serif;font-style:normal;font-weight:normal" x="684.7" y="199.873">
    <tspan x="684.7" y="199.873">eth0</tspan>
  </text>
  <text font-size="12.8" style="fill: #000000;text-anchor:start;font-family:sans-serif;font-style:normal;font-weight:normal" x="633.7" y="186.25">
    <tspan x="633.7" y="186.25">200.2.2.2/24</tspan>
  </text>
  <text font-size="12.8" style="fill: #000000;text-anchor:start;font-family:sans-serif;font-style:normal;font-weight:normal" x="761.7" y="216.8">
    <tspan x="761.7" y="216.8">eth1</tspan>
  </text>
  <text font-size="12.8" style="fill: #000000;text-anchor:start;font-family:sans-serif;font-style:normal;font-weight:normal" x="760.7" y="229.178">
    <tspan x="760.7" y="229.178">192.168.2.1/24</tspan>
  </text>
  <text font-size="12.8" style="fill: #000000;text-anchor:start;font-family:sans-serif;font-style:normal;font-weight:normal" x="294" y="170">
    <tspan x="294" y="170">intnet0</tspan>
  </text>
  <text font-size="12.8" style="fill: #000000;text-anchor:start;font-family:sans-serif;font-style:normal;font-weight:normal" x="468.7" y="170.8">
    <tspan x="468.7" y="170.8">intnet1</tspan>
  </text>
  <text font-size="12.8" style="fill: #000000;text-anchor:start;font-family:sans-serif;font-style:normal;font-weight:normal" x="633.4" y="170.7">
    <tspan x="633.4" y="170.7">intnet2</tspan>
  </text>
  <text font-size="12.8" style="fill: #000000;text-anchor:start;font-family:sans-serif;font-style:normal;font-weight:normal" x="784.1" y="170.6">
    <tspan x="784.1" y="170.6">intnet3</tspan>
  </text>
</svg>
